<?xml version="1.0" encoding="UTF-8" standalone="no"?>
<!-- Created with Inkscape (http://www.inkscape.org/) -->

<svg
   width="148mm"
   height="210mm"
   viewBox="0 0 148 210"
   version="1.1"
   id="svg1616"
   inkscape:version="1.2.2 (732a01da63, 2022-12-09)"
   sodipodi:docname="sörgif - 1.svg"
   xmlns:inkscape="http://www.inkscape.org/namespaces/inkscape"
   xmlns:sodipodi="http://sodipodi.sourceforge.net/DTD/sodipodi-0.dtd"
   xmlns="http://www.w3.org/2000/svg"
   xmlns:svg="http://www.w3.org/2000/svg">
  <sodipodi:namedview
     id="namedview1618"
     pagecolor="#ffffff"
     bordercolor="#000000"
     borderopacity="0.25"
     inkscape:showpageshadow="2"
     inkscape:pageopacity="0.0"
     inkscape:pagecheckerboard="0"
     inkscape:deskcolor="#d1d1d1"
     inkscape:document-units="mm"
     showgrid="false"
     inkscape:zoom="0.84880375"
     inkscape:cx="459.47016"
     inkscape:cy="444.74356"
     inkscape:window-width="1920"
     inkscape:window-height="991"
     inkscape:window-x="-9"
     inkscape:window-y="-9"
     inkscape:window-maximized="1"
     inkscape:current-layer="layer1" />
  <defs
     id="defs1613" />
  <g
     inkscape:label="Réteg 1"
     inkscape:groupmode="layer"
     id="layer1">
    <g
       id="g6566"
       transform="matrix(5.1668795,0,0,5.113984,-1104.8884,-1404.3823)"
       style="display:inline">
      <path
         id="path6560"
         style="fill:#000000;stroke-width:0.126156"
         d="m 232.31471,287.52745 0.0996,-0.15078 c -0.85043,0.35806 -1.00925,0.41146 -1.00925,0.41146 l -0.80538,0.30319 c 0,0 -0.0473,1.05385 0.008,1.29093 l -0.0211,0.42237 -0.0863,1.44471 c -0.0475,0.79665 -0.0455,1.67806 -0.0698,1.95542 -0.0243,0.27755 -0.056,1.06585 -0.0702,1.75175 l -0.0259,1.24708 0.0657,0.83432 c 0.0148,0.34886 0.0261,0.67519 0.0235,1.07351 l -0.0451,0.92308 h 1.3e-4 l -0.079,1.91794 c 0,0 -0.0666,0.76565 -0.0861,1.30231 l -0.0355,0.97568 -0.12597,0.0485 c -0.0694,0.0266 -2.55316,0.0591 -5.51901,0.0722 l -4.9269,-0.0885 v 0.40184 l 0.0379,0.005 c 0.24283,0.0331 3.28431,0.0996 6.7582,0.14766 l 6.31665,0.0874 0.0273,-1.29349 c 0.0299,-1.41568 -0.0318,-1.77397 -0.30585,-1.77397 h -0.18081 v 1.2693 1.26917 l -0.47311,-0.0392 -0.47298,-0.0392 -0.0354,-1.53584 -0.0352,-2.54767 -0.0322,-5.5912 -0.0118,-4.00045 -0.0211,-0.25539 c -0.0114,-0.25946 -0.0309,-0.45178 0.16987,-0.48042 0.12387,-0.0141 0.41914,-0.0721 0.41914,-0.0721 l 0.15332,0.19226 c 0,0 0.035,0.0839 0.0216,0.1604 l -0.0194,0.27173 -0.009,0.75176 0.0657,1.05614 0.29796,0.60066 0.29783,0.60066 0.41013,0.12071 0.40986,0.12071 v 2.30783 l 0.0551,2.32611 c 0.0183,0.003 0.008,0.54937 0.008,0.54937 l -0.0683,1.13544 c -0.0375,0.62447 -0.005,1.26214 -0.0105,1.25181 l -0.0274,0.81894 c 0,0 -0.0576,1.0133 -0.0714,2.09388 l -0.0251,1.96516 -0.38448,0.54544 -0.38449,0.54556 -0.13688,0.9503 -0.13701,0.95043 0.13136,0.67468 c 0.0722,0.37108 0.17393,0.77405 0.22603,0.89547 l 0.0948,0.22078 h -0.98895 -0.98896 l 0.45273,-0.3077 0.45286,-0.30769 0.22827,-0.48087 0.22814,-0.48074 0.058,-0.90348 0.0581,-0.90362 -0.74135,-0.10572 -0.74122,-0.10559 -6.74203,0.0305 -6.74202,0.0304 -0.10717,0.10717 -0.10717,0.10717 2.18134,0.0827 c 1.19966,0.0455 3.23697,0.083 4.52676,0.0832 1.28973,2e-4 3.28049,0.0373 4.42355,0.0823 l 2.07824,0.0819 0.20657,1.19448 c 0.27687,1.60088 0.39814,1.72295 0.52966,0.53241 0.0421,-0.38061 0.0975,-0.77758 0.12334,-0.88166 0.0258,-0.10408 0.0799,-0.33845 0.12031,-0.52097 l 0.0735,-0.33189 0.23972,-0.0627 0.23971,-0.0627 0.065,0.40013 c 0.0912,0.56193 -0.0898,1.42912 -0.37896,1.81644 -0.13441,0.18025 -0.43904,0.44371 -0.67667,0.58554 l -0.43208,0.25786 h -6.92802 -6.92796 l -0.0462,0.13819 -0.046,0.13807 2.87588,0.0876 c 1.58159,0.0482 5.32857,0.0808 8.32585,0.0725 2.9973,-0.008 5.50883,0.0212 5.58068,0.0656 l 0.13057,0.0807 v 0.47798 0.0527 l 0.10125,4.2e-4 0.0304,0.41288 c -0.007,0.004 -0.0593,0.007 -0.13162,0.009 v 0.003 l 0.51072,0.23025 c 0.28096,0.12669 0.67561,0.41805 0.87692,0.64733 l 0.36608,0.41683 0.0853,0.4551 0.0855,0.45523 -0.17751,0.17751 -0.17752,0.17739 -1.38396,0.21407 -1.38409,0.21394 -6.74926,-10e-4 -6.74938,-0.001 -1.8217,-0.21039 c -1.00182,-0.11573 -1.87456,-0.26338 -1.93926,-0.32808 -0.17766,-0.17768 -0.22366,-0.84974 -0.0834,-1.2188 0.0684,-0.18002 0.36535,-0.54993 0.6597,-0.82196 l 0.53531,-0.49454 8.28062,0.0167 c 4.15621,0.008 8.3104,0.0917 9.06589,0.0694 v -0.42271 l -8.97056,-0.0408 h -8.32506 l 0.027,-5.86645 c 10e-4,-1.48945 -0.0207,-3.02047 -0.0455,-4.44708 0,0 0.002,-0.0795 0.003,-0.0789 -0.003,0.005 -0.0112,-0.74886 -0.0112,-0.74886 l 0.0277,-1.13438 0.0293,-1.04379 0.0334,-0.55661 6.6e-4,-0.58028 0.007,-1.26417 -0.002,-6.31649 2.51852,0.33953 3.32775,0.0707 3.28136,0.0181 3.15814,-0.0801 1.71222,-0.12794 0.75065,-0.20538 c 0.2839,-0.91188 2.81924,-1.48622 1.6301,-1.58549 l -3.17184,0.13603 -5.37222,0.15067 -3.97511,0.0113 c 0,0 -1.45591,0.009 -2.72458,-0.0631 -0.56863,-0.0323 -1.33232,-0.0385 -1.78537,-0.0963 l -0.179,0.29876 0.0519,0.40982 0.163,0.62177 -0.0509,13.63314 -0.21176,8.38947 -0.48337,0.46798 c -0.2659,0.25737 -0.56397,0.62118 -0.66233,0.80855 l -0.17883,0.3407 v 1.01947 0.65417 c 0.002,0.006 0.004,0.0118 0.007,0.0177 0.011,0.0245 0.0183,0.0507 0.03,0.0748 0.004,0.009 0.0144,0.0262 0.0189,0.0342 0.0191,0.0343 0.037,0.0691 0.0559,0.10349 0.0105,0.022 0.022,0.0434 0.0331,0.0651 v 1.3e-4 c 0.003,0.005 0.006,0.01 0.009,0.0147 0.0119,0.0196 0.0253,0.0382 0.0387,0.0568 0.01,0.0136 0.0203,0.027 0.0299,0.0409 0.009,0.0122 0.0162,0.0251 0.0243,0.0376 0.009,0.0123 0.0164,0.0259 0.0237,0.0393 0.002,0.003 0.003,0.006 0.005,0.008 0.0308,0.027 0.0547,0.0604 0.073,0.0953 0.01,0.0116 0.0187,0.0236 0.0283,0.0352 0.009,0.0112 0.0181,0.0215 0.0275,0.032 0.008,0.009 0.0151,0.0187 0.0231,0.0276 0.008,0.009 0.0162,0.0185 0.0241,0.0279 0.008,0.01 0.0169,0.0189 0.025,0.0287 0.008,0.0105 0.0167,0.0209 0.0245,0.0318 0.007,0.0104 0.0152,0.0201 0.023,0.03 0.008,0.0109 0.0169,0.0217 0.0262,0.0319 0.0114,0.013 0.0223,0.0264 0.0333,0.0397 0.004,0.005 0.007,0.01 0.0111,0.0145 0.006,0.006 0.0112,0.0122 0.017,0.018 0.024,0.022 0.0492,0.0425 0.0751,0.0622 0.0226,0.0181 0.0456,0.0357 0.068,0.0542 0.0155,0.0134 0.0296,0.0282 0.0447,0.0419 0.0111,0.007 0.0214,0.0159 0.0327,0.023 0.028,0.0194 0.0586,0.0347 0.0891,0.0496 0.0323,0.0155 0.0657,0.0281 0.099,0.0409 0.0341,0.0143 0.068,0.0289 0.10178,0.0439 0.008,0.004 0.0162,0.008 0.0238,0.0121 h 1.3e-4 c 0.73276,0.1701 2.82089,0.38038 5.09955,0.51124 l 1.89245,0.10822 4.03695,-0.06 c 2.22034,-0.033 4.23566,-0.081 4.47851,-0.10677 0.24285,-0.0257 0.98099,-0.0819 1.63998,-0.12466 0.65917,-0.0428 1.71474,-0.16868 2.34569,-0.27981 l 0.0626,-0.0111 c 0.0176,-0.008 0.0352,-0.0164 0.053,-0.0245 0.0569,-0.0252 0.11222,-0.0539 0.1691,-0.0792 0.0474,-0.0232 0.0939,-0.0478 0.13899,-0.0754 0.0326,-0.0177 0.0648,-0.036 0.0965,-0.0554 0.0256,-0.0158 0.0521,-0.0308 0.0781,-0.0458 0.001,-6.2e-4 0.002,-0.001 0.004,-0.002 0.0149,-0.0124 0.0292,-0.0253 0.0439,-0.0379 0.0344,-0.0299 0.0667,-0.0623 0.10257,-0.0905 0.0363,-0.0323 0.0739,-0.0629 0.11124,-0.0939 0.016,-0.0132 0.0321,-0.0263 0.0485,-0.0388 l 0.18241,-0.20446 c 0.12056,-0.13515 0.28127,-0.42391 0.35714,-0.64155 l 0.13793,-0.39553 -0.14924,-0.71874 -0.14925,-0.71887 -0.61196,-0.6121 c -0.33656,-0.33655 -0.69972,-0.61196 -0.80711,-0.61196 h -0.19526 l 0.005,-0.22065 0.005,-0.22077 0.84629,-0.42262 0.84615,-0.42249 1.40829,0.14109 1.40802,0.14109 0.69336,-0.0815 0.69336,-0.0815 0.48482,-0.27061 0.48455,-0.27048 0.3996,-0.59513 0.39961,-0.59514 0.19158,-0.85286 c 0.10535,-0.46899 0.25358,-1.41894 0.32939,-2.11033 l 0.13781,-1.25707 -0.004,-4.5052 -0.004,-4.50494 -0.19711,-1.55477 c -0.10842,-0.85511 -0.3405,-2.20768 -0.51585,-3.00553 l -0.31892,-1.45089 -0.23196,-0.37857 c -0.1276,-0.20813 -0.42046,-0.49187 -0.65076,-0.63064 l -0.41867,-0.25233 -1.57699,0.0508 c -0.86732,0.0279 -2.05971,0.0547 -2.64931,0.0598 l -1.21934,-0.0535 -0.13399,-0.0945 -0.281,-0.1574 -0.56049,-0.13529 c -0.7504,-0.0506 -1.55935,0.0368 -1.40863,0.33047 z m 0.97501,0.0881 h 1.3e-4 c 0.21313,0.0143 0.62393,0.26298 1.1044,0.42432 l 1.08232,0.20934 2.03551,-0.0897 2.03564,-0.0897 0.42564,0.20184 c 0.23411,0.11108 0.49723,0.31681 0.58475,0.45694 0.28901,0.46274 0.82587,3.63563 1.04563,6.17923 l 0.23221,3.3766 -0.003,-4.1e-4 c 0,0 -0.13939,4.52588 -0.15805,4.95017 l -0.0839,2.20789 -0.17883,0.9912 -0.17883,0.99132 -0.32847,0.6714 -0.32847,0.6714 -0.59435,0.28889 -0.59421,0.28902 -2.01855,0.004 -2.01854,0.004 -0.64471,0.41 h -1.3e-4 c -0.3546,0.2255 -0.76859,0.40999 -0.92019,0.40999 h -0.27574 l -0.29927,-0.29928 c -0.57039,-0.5704 -0.73963,-1.99291 -0.38094,-3.20079 l 0.19119,-0.64418 0.38606,-0.32492 c 0.50886,-0.42814 0.72292,-0.41052 1.41434,0.11742 l 0.57909,0.44221 0.63012,0.14543 0.62998,0.14543 0.5716,-0.21827 0.57146,-0.21815 0.31585,-0.37541 c 0.17373,-0.20647 0.40678,-0.67102 0.51782,-1.03182 l 0.20184,-0.65615 0.0719,-1.61539 0.0266,-3.3841 h -6.2e-4 c -8e-5,-0.003 -0.0384,-1.36325 -0.058,-2.5069 l -0.0342,-2.08167 -0.32268,-1.23826 c -0.17744,-0.68104 -0.43886,-1.42652 -0.58109,-1.65664 l -0.25864,-0.41841 -0.35595,-0.1474 c -0.1957,-0.0811 -0.75546,-0.1587 -1.24405,-0.17252 l -0.8885,-0.0253 -0.63603,0.59408 -0.63616,0.59409 -0.34583,0.0869 -0.34582,0.0866 -0.20119,-0.1219 c -0.11067,-0.067 -0.30775,-0.33599 -0.43787,-0.59763 l -0.23655,-0.47561 -0.0158,-1.02946 -0.0158,-1.02945 0.31545,-0.63077 0.31532,-0.63077 0.26325,-0.0376 c 0.0181,-0.003 0.0428,-0.003 0.0732,-7.7e-4 z m 3.37344,3.7599 0.32965,0.15029 0.32966,0.15017 0.18842,0.44905 c 0.10367,0.24696 0.27486,0.84644 0.38041,1.33215 l 0.19198,0.88297 0.0626,1.89245 0.18002,1.59829 0.0466,1.25825 0.0381,-0.002 -0.038,0.002 -0.0375,3.82959 -0.12781,0.85918 c -0.0702,0.47251 -0.23472,1.06848 -0.36555,1.32452 l -0.23788,0.46562 -0.433,0.22761 -0.43287,0.22748 -0.53544,-0.0675 -0.53557,-0.0673 -0.64563,-0.44392 c -0.35504,-0.24422 -0.69922,-0.44418 -0.76476,-0.44418 h -0.119 l 0.0901,-6.33939 0.0901,-6.33926 0.51624,-0.46785 0.51637,-0.46799 0.65641,-0.005 z m -10.57003,12.89312 c -0.73419,-0.001 -1.49497,6.2e-4 -2.24367,0.005 l -4.2434,0.0255 v 0.34411 l 4.23262,0.0579 6.27615,0.0857 v 0.4643 c 0,0.25529 0.0364,0.5003 0.0807,0.54465 h -2.1e-4 c 0.0444,0.0444 0.20042,0.058 0.34688,0.0304 0.14646,-0.0276 0.38273,-0.0544 0.52492,-0.0596 l 0.25851,-0.009 -0.0532,-0.45602 -0.0533,-0.45615 0.14004,-0.0865 c 0.077,-0.0476 0.33939,-0.0632 0.58317,-0.0347 l 0.44326,0.0517 -0.002,0.2071 c -0.003,0.30362 -0.15477,0.49394 -0.50625,0.63419 l -0.31177,0.12453 0.2597,0.008 c 0.14286,0.004 0.36267,-0.0673 0.48837,-0.15924 l 0.2284,-0.167 0.0164,-0.49533 0.0163,-0.4952 -1.63998,-0.096 c -0.67638,-0.0396 -2.63926,-0.0654 -4.84183,-0.0683 z m -0.58291,7.2651 -4.22631,0.13741 c -4.12813,0.13423 -5.05597,0.22432 -5.34557,0.51927 l -0.14228,0.1449 0.37844,-0.10362 0.37857,-0.10361 4.10007,0.0363 c 2.25486,0.0199 5.95091,0.0837 8.21264,0.14175 l 4.11256,0.10546 0.36595,0.17541 0.36607,0.17541 v 0.18698 0.18698 l -0.48494,0.15885 -0.48482,0.15884 -4.24603,0.1879 c -2.33512,0.10335 -4.44474,0.19872 -4.68758,0.21184 l -0.44142,0.0238 1.00921,0.08 c 0.55509,0.0439 2.7129,0.0902 4.79475,0.10296 l 3.78554,0.0231 0.42932,-0.12308 c 0.23616,-0.0677 0.56231,-0.248 0.72466,-0.40052 l 0.2952,-0.27732 v -0.32847 c 0,-0.18063 -0.0845,-0.44905 -0.18777,-0.59645 l -0.18777,-0.26799 -0.60066,-0.21052 -0.60079,-0.21078 -3.65865,-0.0675 z"
         sodipodi:nodetypes="cccccccccccccccccccccccccsccccccccccccccccccccccccccccccccccccccccccccccccccccscscccccccccccccccscccccccccccccccccccccccccccccccccccccccccccccccccsccccccccccccsccccccccscccccccccccccccccccccccccscccccccccccccscccccscccccccccccccscccccsccccccccccccscccccccccccccccccccccscscccccccccccccccccccccccccccccccccccccsccccccccccccccccccscccccccscscccscccccccccccccscccccsccscccccccccccccccccccccscccccccsc" />
    </g>
  </g>
</svg>
