<?xml version="1.0" encoding="UTF-8" standalone="no"?>
<!-- Created with Inkscape (http://www.inkscape.org/) -->

<svg
   width="148mm"
   height="210mm"
   viewBox="0 0 148 210"
   version="1.1"
   id="svg2014"
   inkscape:version="1.2.2 (732a01da63, 2022-12-09)"
   sodipodi:docname="sörgif - 3.svg"
   xmlns:inkscape="http://www.inkscape.org/namespaces/inkscape"
   xmlns:sodipodi="http://sodipodi.sourceforge.net/DTD/sodipodi-0.dtd"
   xmlns="http://www.w3.org/2000/svg"
   xmlns:svg="http://www.w3.org/2000/svg">
  <sodipodi:namedview
     id="namedview2016"
     pagecolor="#ffffff"
     bordercolor="#000000"
     borderopacity="0.25"
     inkscape:showpageshadow="2"
     inkscape:pageopacity="0.0"
     inkscape:pagecheckerboard="0"
     inkscape:deskcolor="#d1d1d1"
     inkscape:document-units="mm"
     showgrid="false"
     inkscape:zoom="0.48821793"
     inkscape:cx="485.43895"
     inkscape:cy="547.91106"
     inkscape:window-width="1920"
     inkscape:window-height="991"
     inkscape:window-x="-9"
     inkscape:window-y="-9"
     inkscape:window-maximized="1"
     inkscape:current-layer="layer1" />
  <defs
     id="defs2011" />
  <g
     inkscape:label="Réteg 1"
     inkscape:groupmode="layer"
     id="layer1">
    <g
       id="g6498"
       transform="matrix(1.0714104,0,0,1.0675343,-49.967788,6.3740444)"
       style="display:inline">
      <rect
         style="font-variation-settings:normal;vector-effect:none;fill:#d4aa00;fill-opacity:1;fill-rule:evenodd;stroke:none;stroke-width:0.630369;stroke-linecap:butt;stroke-linejoin:miter;stroke-miterlimit:4;stroke-dasharray:none;stroke-dashoffset:0;stroke-opacity:1;-inkscape-stroke:none;stop-color:#000000"
         id="rect6428"
         width="87.098953"
         height="32.380501"
         x="55.476067"
         y="105.02598"
         rx="0.94983256"
         ry="1.6947223" />
      <rect
         style="font-variation-settings:normal;vector-effect:none;fill:#d4aa00;fill-opacity:1;fill-rule:evenodd;stroke:none;stroke-width:0.825496;stroke-linecap:butt;stroke-linejoin:miter;stroke-miterlimit:4;stroke-dasharray:none;stroke-dashoffset:0;stroke-opacity:1;-inkscape-stroke:none;stop-color:#000000"
         id="rect6393"
         width="79.11097"
         height="61.137241"
         x="56.075169"
         y="106.02447"
         rx="0.94983256"
         ry="1.6947223" />
      <path
         id="path6395"
         style="fill:#000000;stroke-width:0.609873"
         d="m 135.94548,53.514612 0.48158,-0.72888 c -4.11119,1.730935 -4.87896,1.989076 -4.87896,1.989076 l -3.89344,1.465715 c 0,0 -0.22876,5.094622 0.0377,6.240729 l -0.10196,2.041826 -0.41699,6.984125 c -0.22961,3.851228 -0.22,8.112199 -0.33754,9.45307 -0.11773,1.341712 -0.27081,5.152611 -0.33945,8.468415 l -0.12523,6.028714 0.31783,4.033327 c 0.0714,1.686491 0.12629,3.264051 0.11379,5.189641 l -0.21803,4.46241 h 6.4e-4 l -0.38205,9.27189 c 0,0 -0.32215,3.70134 -0.41637,6.2957 l -0.17163,4.71669 -0.60897,0.23456 c -0.33541,0.12876 -12.34269,0.28555 -26.680392,0.34897 l -23.817989,-0.4278 v 1.94262 l 0.183074,0.0248 c 1.173911,0.16008 15.877255,0.48145 32.670967,0.71385 l 30.5364,0.42273 0.13221,-6.2531 c 0.14476,-6.84378 -0.15367,-8.57585 -1.47856,-8.57585 h -0.87405 v 6.13614 6.1355 l -2.28715,-0.18943 -2.28651,-0.18943 -0.17099,-7.42465 -0.17036,-12.31613 -0.15574,-27.029398 -0.0572,-19.339276 -0.10207,-1.234613 c -0.0551,-1.254301 -0.14947,-2.184053 0.82118,-2.322488 0.5988,-0.06834 2.02626,-0.348567 2.02626,-0.348567 l 0.74118,0.929443 c 0,0 0.16902,0.405561 0.10458,0.775416 l -0.0938,1.313613 -0.0423,3.634185 0.31783,5.105701 1.44043,2.903755 1.43979,2.903754 1.98267,0.583538 1.98139,0.583549 v 11.156671 l 0.26634,11.245027 c 0.0887,0.0155 0.0393,2.65583 0.0393,2.65583 l -0.32992,5.48903 c -0.18114,3.01887 -0.0256,6.10154 -0.0508,6.0516 l -0.13221,3.95896 c 0,0 -0.2786,4.8986 -0.34517,10.12242 l -0.12142,9.50012 -1.8587,2.63677 -1.85871,2.63739 -0.66173,4.594 -0.66237,4.59464 0.63504,3.26163 c 0.34917,1.7939 0.84081,3.74193 1.09272,4.32892 l 0.45832,1.0673 h -4.78089 -4.78089 l 2.18862,-1.48748 2.18925,-1.48747 1.10353,-2.32464 1.1029,-2.32402 0.28032,-4.3677 0.28097,-4.36834 -3.58392,-0.51108 -3.58327,-0.51044 -32.592798,0.14747 -32.592788,0.14684 -0.518072,0.51808 -0.518071,0.51807 10.545154,0.39984 c 5.799509,0.21999 15.648418,0.40129 21.883624,0.40238 6.234881,10e-4 15.858771,0.1801 21.384641,0.39793 l 10.04678,0.39602 0.99864,5.77445 c 1.33844,7.73911 1.92471,8.32922 2.56049,2.57382 0.20334,-1.83994 0.47155,-3.75903 0.59625,-4.26217 0.12478,-0.50314 0.38642,-1.63616 0.58165,-2.51853 l 0.35533,-1.60444 1.15884,-0.30322 1.15882,-0.30321 0.31403,1.93434 c 0.44084,2.71654 -0.43408,6.90874 -1.832,8.78117 -0.64976,0.8714 -2.1224,2.14501 -3.27117,2.83064 l -2.08883,1.24657 H 92.733139 59.241508 l -0.22312,0.66808 -0.222486,0.66747 13.902774,0.42335 c 7.645856,0.23289 25.759752,0.39061 40.249444,0.35025 14.48975,-0.0403 26.63117,0.10264 26.97854,0.3172 l 0.63122,0.3903 v 2.31068 0.25489 l 0.48947,0.002 0.14683,1.99601 c -0.0331,0.0205 -0.28679,0.0341 -0.6363,0.0445 v 0.0134 l 2.46895,1.11306 c 1.35824,0.61249 3.26609,2.02098 4.23929,3.12941 l 1.76973,2.01507 0.41253,2.20006 0.41319,2.2007 -0.85815,0.85816 -0.85816,0.85752 -6.69044,1.03487 -6.69108,1.03425 -32.62775,-0.007 -32.628387,-0.007 -8.806593,-1.01707 c -4.843056,-0.5595 -9.062108,-1.27325 -9.374884,-1.58602 -0.858856,-0.85895 -1.081244,-4.10789 -0.403016,-5.89203 0.330888,-0.87028 1.766179,-2.65852 3.189164,-3.97359 l 2.587818,-2.39075 40.030776,0.0807 c 20.092292,0.0407 40.174782,0.44327 43.827012,0.33563 V 166.8447 L 97.191738,166.64771 H 56.946097 l 0.130314,-28.36003 c 0.006,-7.2004 -0.09986,-14.60177 -0.219943,-21.49842 0,0 0.01171,-0.38418 0.01207,-0.38139 -0.01488,0.024 -0.05403,-3.62016 -0.05403,-3.62016 l 0.134127,-5.48393 0.141755,-5.04596 0.161459,-2.690801 0.0032,-2.80522 0.03623,-6.11135 -0.01046,-30.535632 12.17524,1.641364 16.087256,0.34171 15.862995,0.08748 15.26731,-0.387226 8.27732,-0.618491 3.62887,-0.992867 c 1.37241,-4.408266 13.62897,-7.184773 7.88031,-7.664694 l -15.33354,0.657629 -25.970781,0.728343 -19.21676,0.05484 c 0,0 -7.038279,0.04346 -13.171379,-0.304862 -2.748917,-0.156124 -6.440773,-0.185859 -8.63095,-0.465766 l -0.865322,1.444324 0.251008,1.981151 0.78798,3.005796 -0.246127,65.906342 -1.023737,40.55701 -2.33673,2.26235 c -1.285423,1.2442 -2.726381,3.00296 -3.201877,3.90876 l -0.864513,1.64702 v 4.92837 3.16247 c 0.01102,0.0285 0.02183,0.0568 0.03305,0.0858 0.05317,0.11826 0.08839,0.2449 0.144934,0.3617 0.02055,0.0424 0.06952,0.12654 0.09154,0.16528 0.09215,0.16577 0.178991,0.33391 0.27016,0.50027 0.05058,0.10616 0.106266,0.21002 0.160189,0.31465 v 6.5e-4 c 0.01467,0.0238 0.0291,0.0474 0.04386,0.0711 0.05737,0.0948 0.122187,0.18475 0.186888,0.27462 0.04849,0.0656 0.09814,0.13045 0.144297,0.19768 0.04147,0.0591 0.07846,0.12121 0.1176,0.18181 0.0445,0.0594 0.07908,0.125 0.114419,0.19006 0.0074,0.0136 0.01437,0.0269 0.02162,0.0407 0.148717,0.13067 0.2643,0.29191 0.352798,0.46084 0.04648,0.0563 0.09044,0.11391 0.136669,0.17037 0.04131,0.054 0.08752,0.104 0.132855,0.15448 0.03881,0.0431 0.07322,0.0902 0.111882,0.13349 0.04078,0.0431 0.07826,0.0893 0.116326,0.13475 0.03777,0.0483 0.08156,0.0914 0.12078,0.13858 0.03984,0.051 0.08077,0.10105 0.118234,0.15384 0.03433,0.0504 0.07358,0.0972 0.111244,0.14492 0.041,0.0525 0.08167,0.10514 0.126498,0.15447 0.05515,0.0629 0.107551,0.12746 0.160826,0.19197 0.01821,0.023 0.0358,0.0465 0.0534,0.0699 0.02788,0.0284 0.05391,0.0589 0.082,0.0871 0.115824,0.1065 0.237705,0.20558 0.362969,0.30066 0.109483,0.0875 0.220489,0.1728 0.328641,0.2619 0.07491,0.0649 0.143288,0.13631 0.216129,0.20278 0.05359,0.0361 0.103538,0.077 0.158282,0.11128 0.13512,0.0938 0.283476,0.16762 0.430986,0.23965 0.155893,0.0747 0.317382,0.13589 0.478661,0.19769 0.164729,0.0693 0.328728,0.13974 0.492009,0.21231 0.04,0.0167 0.07833,0.0365 0.115057,0.0585 h 6.72e-4 c 3.542354,0.82231 13.636913,1.83886 24.652614,2.47149 l 9.148586,0.52316 19.515753,-0.28986 c 10.73374,-0.15954 20.47633,-0.3917 21.65033,-0.51617 1.174,-0.12445 4.74238,-0.39585 7.9281,-0.60262 3.1866,-0.20672 8.28956,-0.81545 11.33974,-1.35271 l 0.30258,-0.0534 c 0.085,-0.0402 0.17031,-0.0793 0.25618,-0.11824 0.27516,-0.12162 0.54247,-0.2606 0.81747,-0.38266 0.22918,-0.11231 0.45402,-0.23095 0.67191,-0.36426 0.15756,-0.0857 0.31346,-0.17426 0.46657,-0.2676 0.12391,-0.0764 0.25177,-0.14887 0.3776,-0.22122 0.007,-0.003 0.0119,-0.007 0.0179,-0.0102 0.0718,-0.0601 0.14091,-0.12242 0.2123,-0.18307 0.16619,-0.14446 0.32222,-0.30136 0.49583,-0.43734 0.1753,-0.15624 0.35731,-0.30394 0.53777,-0.45388 0.0771,-0.0639 0.15503,-0.12694 0.23456,-0.18752 l 0.88168,-0.98848 c 0.5828,-0.65336 1.35971,-2.0493 1.72649,-3.10143 l 0.66682,-1.91211 -0.7215,-3.47457 -0.72147,-3.47522 -2.95842,-2.95904 c -1.62699,-1.62699 -3.38264,-2.95842 -3.90176,-2.95842 h -0.94396 l 0.0261,-1.06666 0.0255,-1.06729 4.09118,-2.04305 4.09054,-2.04242 6.80805,0.68207 6.80677,0.68208 3.35188,-0.3941 3.35191,-0.39413 2.34372,-1.3082 2.34245,-1.30758 1.93181,-2.87705 1.93181,-2.87706 0.92616,-4.12296 c 0.5093,-2.26723 1.22585,-6.85955 1.59235,-10.20189 l 0.6662,-6.07703 -0.0185,-21.77936 -0.0184,-21.778112 -0.95287,-7.51618 c -0.52412,-4.133846 -1.64607,-10.672556 -2.49374,-14.529547 l -1.5415,-7.014019 -1.12133,-1.830098 c -0.61688,-1.006193 -2.03262,-2.377832 -3.14594,-3.048681 l -2.02398,-1.219853 -7.62361,0.245368 c -4.19287,0.134646 -9.95719,0.264318 -12.80751,0.289232 l -5.89458,-0.25872 -0.64775,-0.457047 -1.35843,-0.760898 -2.70957,-0.654061 c -3.62763,-0.244652 -7.53832,0.177845 -6.8097,1.597578 z m 4.71347,0.425807 h 6.4e-4 c 1.03032,0.06916 3.01623,1.271318 5.339,2.051312 l 5.23222,1.01199 9.8402,-0.433528 9.84084,-0.433528 2.05766,0.975755 c 1.13173,0.536968 2.40376,1.531534 2.82683,2.208959 1.39718,2.237035 3.99249,17.575634 5.05486,29.872123 l 1.1226,16.323398 -0.0165,-0.002 c 0,0 -0.67385,21.87932 -0.76409,23.93049 l -0.40556,10.67355 -0.86451,4.79169 -0.8645,4.79234 -1.58792,3.24574 -1.58791,3.24574 -2.87323,1.39657 -2.8726,1.3972 -9.7582,0.0185 -9.75819,0.0184 -3.1167,1.98203 h -6.3e-4 c -1.71425,1.09015 -3.71557,1.98201 -4.44843,1.98201 h -1.33301 l -1.44679,-1.44678 c -2.75741,-2.75747 -3.57557,-9.63431 -1.84154,-15.47352 l 0.92428,-3.11415 1.86632,-1.57075 c 2.45994,-2.06975 3.49477,-1.98457 6.83728,0.56766 l 2.7995,2.13776 3.04614,0.70306 3.04551,0.70305 2.76326,-1.05522 2.76263,-1.05457 1.52688,-1.81485 c 0.83987,-0.9981 1.96647,-3.24387 2.50328,-4.98811 l 0.97575,-3.17201 0.34772,-7.80922 0.1284,-16.35964 h -0.003 c -4e-4,-0.0139 -0.18562,-6.59036 -0.28034,-12.119081 L 167.51183,87.059473 165.9519,81.07335 c -0.85773,-3.29248 -2.12149,-6.896348 -2.80905,-8.008819 l -1.25035,-2.022707 -1.72077,-0.712594 c -0.94605,-0.391909 -3.6521,-0.7672 -6.01408,-0.834001 l -4.29523,-0.122055 -3.07476,2.871974 -3.07538,2.871962 -1.6718,0.420188 -1.67183,0.418905 -0.97258,-0.589267 c -0.53503,-0.324084 -1.48775,-1.624274 -2.11677,-2.889137 l -1.14357,-2.299211 -0.0763,-4.976687 -0.0763,-4.976668 1.52496,-3.049317 1.52434,-3.049316 1.27263,-0.181802 c 0.0874,-0.0125 0.20687,-0.01539 0.35405,-0.0037 z m 16.30816,18.176386 1.59363,0.726575 1.59363,0.725939 0.91091,2.170825 c 0.50114,1.193901 1.32873,4.091961 1.839,6.439991 l 0.92808,4.268518 0.30258,9.148592 0.87024,7.726585 0.22502,6.08274 0.18434,-0.0114 -0.1837,0.0115 -0.18116,18.5133 -0.61787,4.15348 c -0.33959,2.28427 -1.13469,5.16535 -1.76717,6.40312 l -1.14994,2.25091 -2.09326,1.10035 -2.09263,1.09971 -2.58845,-0.32609 -2.58909,-0.32547 -3.12115,-2.14603 c -1.71634,-1.18064 -3.3802,-2.14729 -3.69708,-2.14729 h -0.57527 l 0.43543,-30.64637 0.43544,-30.645726 2.49564,-2.261713 2.49628,-2.26236 3.17327,-0.02478 z m -51.09845,62.328875 c -3.54927,-0.005 -7.227062,0.003 -10.846472,0.0255 l -20.513757,0.12333 v 1.66353 l 20.46163,0.27971 30.340609,0.41446 v 2.24455 c 0,1.23416 0.17593,2.41858 0.39031,2.63296 h -0.001 c 0.21438,0.21462 0.96886,0.28052 1.6769,0.14683 0.70805,-0.13349 1.85023,-0.26305 2.53759,-0.28795 l 1.24973,-0.0451 -0.25744,-2.20449 -0.25744,-2.20515 0.67698,-0.41828 c 0.37215,-0.23004 1.64071,-0.30542 2.81921,-0.16782 l 2.14285,0.24983 -0.009,1.00118 c -0.0138,1.46776 -0.74821,2.3878 -2.44734,3.06584 l -1.50718,0.60198 1.25544,0.0389 c 0.69063,0.0214 1.75327,-0.32548 2.3609,-0.7698 l 1.10415,-0.8073 0.0795,-2.39458 0.0789,-2.39393 -7.92811,-0.46404 c -3.26978,-0.19133 -12.75889,-0.31635 -23.40669,-0.32993 z m -2.81793,35.12149 -20.43113,0.66427 c -19.956503,0.64892 -24.441951,1.08441 -25.841956,2.51028 l -0.687795,0.7005 1.829462,-0.50092 1.830099,-0.50089 19.820873,0.17543 c 10.900603,0.0962 28.768347,0.40476 39.702137,0.68526 l 19.88127,0.50982 1.76907,0.84798 1.76971,0.84799 v 0.90392 0.90392 l -2.34436,0.7679 -2.34372,0.76788 -20.52647,0.90838 c -11.28861,0.4996 -21.487117,0.96064 -22.661058,1.02406 l -2.133941,0.11506 4.878777,0.38649 c 2.683452,0.2124 13.114912,0.43616 23.179132,0.49774 l 18.30034,0.11184 2.07547,-0.59498 c 1.14164,-0.3274 2.71837,-1.19891 3.50318,-1.93625 l 1.42709,-1.34064 v -1.58791 c 0,-0.87319 -0.40859,-2.1708 -0.90774,-2.88341 l -0.90773,-1.29549 -2.90376,-1.01772 -2.90437,-1.01897 -17.68693,-0.32611 z"
         sodipodi:nodetypes="cccccccccccccccccccccccccsccccccccccccccccccccccccccccccccccccccccccccccccccccscscccccccccccccccscccccccccccccccccccccccccccccccccccccccccccccccccsccccccccccccsccccccccscccccccccccccccccccccccccscccccccccccccscccccscccccccccccccscccccsccccccccccccscccccccccccccccccccccscscccccccccccccccccccccccccccccccccccccsccccccccccccccccccscccccccscscccscccccccccccccscccccsccscccccccccccccccccccccscccccccsc" />
      <path
         style="fill:#d4aa00;fill-rule:evenodd;stroke-width:2.75283"
         d="m 331.64028,629.66693 -115.56097,-0.19351 -0.37214,-108.93969 c -0.20467,-59.91684 -0.21451,-110.01362 -0.0219,-111.32619 l 0.35026,-2.38649 h 131.2207 131.2207 l -0.36833,5.84947 c -0.20257,3.21721 -0.71085,13.66134 -1.1295,23.20918 -0.41865,9.54784 -1.07877,21.77512 -1.46694,27.17172 -0.38816,5.39661 -0.71836,13.42639 -0.73379,17.84397 l -0.028,8.03195 -2.07562,0.55503 c -3.348,0.89528 -94.99398,1.5756 -131.14129,0.97352 -18.26544,-0.30424 -39.23861,-0.65506 -46.60706,-0.77962 l -13.39716,-0.22646 v 3.91751 3.91752 l 3.96254,0.42584 c 8.12502,0.87319 235.15801,4.60454 235.8857,3.87686 0.18043,-0.18044 0.37709,-11.47222 0.43703,-25.09286 0.10288,-23.37647 0.0244,-24.93406 -1.40055,-27.78389 -1.36429,-2.72856 -1.81822,-3.04141 -4.71732,-3.25117 l -3.20777,-0.23209 v 23.12828 23.12828 l -5.84947,-0.47166 c -3.2172,-0.25941 -6.91601,-0.63643 -8.21956,-0.83781 l -2.37009,-0.36615 -0.44304,-16.02022 c -0.24368,-8.81112 -0.64025,-27.48329 -0.88128,-41.49371 l -0.43824,-25.47349 19.47892,-7.6e-4 19.47894,-7.7e-4 -0.17796,14.1527 c -0.0979,7.78399 -0.51645,22.8137 -0.93017,33.39935 -0.41371,10.58565 -0.97831,30.60006 -1.25467,44.47646 l -0.50246,25.22983 -6.91782,9.86698 -6.91783,9.86698 -2.50943,17.56324 -2.50942,17.56323 2.05606,10.30464 c 1.74841,8.76271 3.85358,16.88707 5.46153,21.07732 0.33359,0.86933 -2.47126,1.04349 -16.80561,1.04349 h -17.20604 l 8.02763,-5.47209 8.02762,-5.47208 4.16476,-9.05724 4.16478,-9.05724 1.01925,-16.22756 c 0.56059,-8.92515 0.74733,-16.41445 0.41496,-16.64287 -0.33235,-0.22843 -6.44358,-1.21814 -13.58051,-2.19936 l -12.97624,-1.78405 -123.43651,0.51901 -123.43651,0.51902 -2.09038,2.00271 c -1.14971,1.10149 -1.96397,2.12912 -1.80947,2.28362 0.84867,0.84867 63.14444,2.56733 116.6927,3.21941 56.07126,0.68279 83.89344,1.35069 113.78158,2.73143 5.91552,0.27328 10.75548,0.55705 10.75548,0.63061 0,0.0736 1.36902,7.92465 3.04227,17.44689 4.03755,22.97707 5.38751,28.25732 7.22434,28.25732 1.66279,0 2.27601,-2.40853 4.04685,-15.89457 1.36072,-10.36263 4.9284,-29.16083 5.69469,-30.00544 0.11797,-0.13002 1.93869,-0.69124 4.04604,-1.24715 l 3.83155,-1.01074 0.58645,2.75669 c 0.32255,1.51619 0.56488,6.49281 0.53851,11.05917 -0.10602,18.35919 -5.72925,28.33661 -21.30108,37.79496 l -5.49886,3.34001 H 350.24506 223.529 l -0.88853,2.69226 c -0.48869,1.48075 -0.76976,2.79386 -0.62461,2.91803 0.36444,0.31176 53.12443,1.83309 82.91124,2.39075 13.49151,0.25259 69.22636,0.67847 123.8552,0.94642 82.54547,0.40486 99.53601,0.66216 100.57311,1.52304 0.90168,0.74847 1.24793,2.26674 1.24793,5.47208 v 4.43621 l -41.70104,-0.18627 c -22.93558,-0.10246 -93.70349,-0.27336 -157.26202,-0.37979 z m 158.11189,-93.51117 6.32195,-0.50667 -0.44244,-4.2211 c -0.24336,-2.32161 -0.66345,-6.09654 -0.93355,-8.38873 -0.47082,-3.99562 -0.40503,-4.21365 1.5941,-5.28339 2.17492,-1.16379 8.79742,-1.34026 15.05903,-0.40127 3.29547,0.49418 3.40191,0.59369 3.40191,3.18021 0,5.82478 -3.16022,9.44969 -11.02944,12.65123 l -4.23148,1.72155 2.63975,0.42837 c 3.72964,0.60524 8.63486,-0.66979 12.76627,-3.31837 l 3.54158,-2.27044 0.23228,-9.19522 c 0.12775,-5.05738 0.14742,-9.33668 0.0437,-9.50958 -0.10371,-0.1729 -7.23629,-0.79304 -15.85017,-1.37808 -11.67963,-0.79327 -41.15349,-1.16329 -115.92425,-1.45532 -55.14444,-0.21538 -101.42128,-0.17424 -102.83741,0.0914 -2.47224,0.4638 -2.57477,0.61693 -2.57477,3.84529 v 3.36227 l 10.37808,0.0184 c 5.70795,0.0101 43.66345,0.51174 84.34556,1.11471 40.6821,0.60298 79.10433,1.10416 85.38272,1.11375 l 11.41527,0.0174 0.33604,8.77899 c 0.39571,10.33792 0.97074,11.24954 6.64685,10.53735 1.86805,-0.2344 6.24134,-0.65417 9.71842,-0.93283 z"
         id="path6492"
         transform="scale(0.26458333)" />
    </g>
  </g>
</svg>
