<?xml version="1.0" encoding="UTF-8" standalone="no"?>
<!-- Created with Inkscape (http://www.inkscape.org/) -->

<svg
   width="148mm"
   height="210mm"
   viewBox="0 0 148 210"
   version="1.1"
   id="svg2191"
   inkscape:version="1.2.2 (732a01da63, 2022-12-09)"
   sodipodi:docname="sörgif - 4.svg"
   xmlns:inkscape="http://www.inkscape.org/namespaces/inkscape"
   xmlns:sodipodi="http://sodipodi.sourceforge.net/DTD/sodipodi-0.dtd"
   xmlns="http://www.w3.org/2000/svg"
   xmlns:svg="http://www.w3.org/2000/svg">
  <sodipodi:namedview
     id="namedview2193"
     pagecolor="#ffffff"
     bordercolor="#000000"
     borderopacity="0.25"
     inkscape:showpageshadow="2"
     inkscape:pageopacity="0.0"
     inkscape:pagecheckerboard="0"
     inkscape:deskcolor="#d1d1d1"
     inkscape:document-units="mm"
     showgrid="false"
     inkscape:zoom="0.55981979"
     inkscape:cx="541.2456"
     inkscape:cy="490.33636"
     inkscape:window-width="1920"
     inkscape:window-height="991"
     inkscape:window-x="-9"
     inkscape:window-y="-9"
     inkscape:window-maximized="1"
     inkscape:current-layer="layer1" />
  <defs
     id="defs2188" />
  <g
     inkscape:label="Réteg 1"
     inkscape:groupmode="layer"
     id="layer1">
    <g
       id="g6391"
       transform="matrix(1.2140525,0,0,1.2140525,-73.106522,-44.618492)"
       style="display:inline">
      <rect
         style="font-variation-settings:normal;opacity:1;vector-effect:none;fill:#d4aa00;fill-opacity:1;fill-rule:evenodd;stroke:none;stroke-width:0.917074;stroke-linecap:butt;stroke-linejoin:miter;stroke-miterlimit:4;stroke-dasharray:none;stroke-dashoffset:0;stroke-opacity:1;-inkscape-stroke:none;stop-color:#000000;stop-opacity:1"
         id="rect6312"
         width="71.356468"
         height="83.654091"
         x="68.695724"
         y="105.13993"
         rx="0.83823419"
         ry="1.4901942" />
      <path
         id="path5578"
         style="fill:#000000;stroke-width:0.536549"
         d="m 138.78765,88.810553 0.42368,-0.641248 c -3.61691,1.522827 -4.29237,1.749932 -4.29237,1.749932 l -3.42534,1.289494 c 0,0 -0.20125,4.482103 0.0332,5.490415 l -0.0897,1.79634 -0.36686,6.144434 c -0.202,3.3882 -0.19355,7.13688 -0.29696,8.31654 -0.10357,1.1804 -0.23825,4.53312 -0.29864,7.45027 l -0.11017,5.30389 0.27962,3.54841 c 0.0628,1.48372 0.1111,2.87161 0.10011,4.56569 l -0.19182,3.9259 h 5.6e-4 l -0.33611,8.15715 c 0,0 -0.28342,3.25633 -0.36631,5.53877 l -0.151,4.14961 -0.53575,0.20636 c -0.29509,0.11328 -10.85875,0.25122 -23.47265,0.30702 l -20.954383,-0.37637 v 1.70906 l 0.161063,0.0218 c 1.032774,0.14084 13.968355,0.42357 28.74298,0.62803 l 26.86505,0.3719 0.11632,-5.5013 c 0.12735,-6.02096 -0.1352,-7.54478 -1.3008,-7.54478 h -0.76896 v 5.3984 5.39783 l -2.01217,-0.16665 -2.01161,-0.16666 -0.15043,-6.53199 -0.14988,-10.83538 -0.13701,-23.77969 -0.0503,-17.014142 -0.0898,-1.086178 c -0.0485,-1.103498 -0.1315,-1.921467 0.72245,-2.043258 0.52681,-0.06012 1.78265,-0.306659 1.78265,-0.306659 l 0.65207,0.817697 c 0,0 0.1487,0.356801 0.092,0.682189 l -0.0825,1.155679 -0.0372,3.197252 0.27962,4.49185 1.26725,2.55464 1.26669,2.55464 1.74429,0.51338 1.74317,0.51339 v 9.81532 l 0.23432,9.89305 c 0.078,0.0136 0.0346,2.33653 0.0346,2.33653 l -0.29025,4.82909 c -0.15936,2.65591 -0.0225,5.36796 -0.0447,5.32402 l -0.11632,3.48298 c 0,0 -0.2451,4.30965 -0.30367,8.90542 l -0.10682,8.35793 -1.63523,2.31976 -1.63524,2.3203 -0.58217,4.04167 -0.58274,4.04223 0.55869,2.86949 c 0.30719,1.57822 0.73972,3.29204 0.96135,3.80846 l 0.40321,0.93898 h -4.20609 -4.20609 l 1.92549,-1.30864 1.92604,-1.30864 0.97085,-2.04515 0.9703,-2.04461 0.24662,-3.84257 0.24719,-3.84314 -3.15303,-0.44964 -3.15246,-0.44907 -28.67421,0.12974 -28.674203,0.12919 -0.455785,0.45579 -0.455784,0.45578 9.277325,0.35177 c 5.102242,0.19354 13.767031,0.35304 19.252587,0.354 5.48527,9.1e-4 13.95209,0.15845 18.81359,0.35009 l 8.83887,0.34841 0.87858,5.08019 c 1.17752,6.80865 1.6933,7.32781 2.25264,2.26438 0.1789,-1.61873 0.41486,-3.30709 0.52457,-3.74974 0.10978,-0.44265 0.33996,-1.43945 0.51172,-2.21573 l 0.31261,-1.41154 1.01951,-0.26676 1.0195,-0.26676 0.27627,1.70178 c 0.38784,2.38993 -0.38189,6.07811 -1.61174,7.72542 -0.57164,0.76663 -1.86723,1.88712 -2.87788,2.49032 l -1.83769,1.09669 H 100.77067 71.305691 l -0.196295,0.58776 -0.195737,0.58722 12.231263,0.37245 c 6.726606,0.20489 22.662698,0.34365 35.410308,0.30814 12.74767,-0.0355 23.42934,0.0903 23.73495,0.27907 l 0.55533,0.34337 v 2.03287 0.22425 l 0.43062,0.002 0.12918,1.75603 c -0.0291,0.018 -0.25231,0.03 -0.5598,0.0392 v 0.0118 l 2.17211,0.97924 c 1.19494,0.53885 2.87341,1.778 3.72961,2.75317 l 1.55695,1.7728 0.36294,1.93555 0.36351,1.93611 -0.75498,0.75499 -0.75498,0.75442 -5.88606,0.91045 -5.88662,0.9099 -28.70496,-0.006 -28.705522,-0.006 -7.747789,-0.89479 c -4.260782,-0.49223 -7.972584,-1.12017 -8.247755,-1.39533 -0.755597,-0.75568 -0.951248,-3.61401 -0.354562,-5.18364 0.291106,-0.76565 1.553834,-2.33889 2.805735,-3.49585 l 2.276689,-2.10332 35.217934,0.071 c 17.67662,0.0358 35.34462,0.38998 38.55775,0.29528 v -1.79741 l -38.15229,-0.17391 H 69.286254 L 69.4009,163.39147 c 0.0053,-6.3347 -0.08785,-12.84622 -0.193499,-18.91369 0,0 0.0103,-0.33799 0.01062,-0.33554 -0.01309,0.0211 -0.04753,-3.18491 -0.04753,-3.18491 l 0.118001,-4.82461 0.124712,-4.43929 0.142047,-2.36729 0.0028,-2.46795 0.03187,-5.37659 -0.0092,-26.864376 10.711428,1.444025 14.153108,0.300627 13.090673,-0.296954 13.84414,-0.58628 8.05931,-0.78974 2.86816,-0.0084 c 1.2074,-3.878267 11.99037,-6.320958 6.93287,-6.743179 l -10.87085,0.45799 -9.86644,0.415675 -17.32034,0.120237 -14.303638,-0.08922 c 0,0 -7.075529,0.126211 -12.471255,-0.180235 -2.418419,-0.137353 -5.666408,0.111422 -7.593263,-0.134833 l -0.761286,1.270675 0.22083,1.74296 0.693242,2.644414 -0.216535,57.982514 -0.900655,35.6809 -2.055788,1.99035 c -1.130878,1.09461 -2.398592,2.64192 -2.81692,3.43881 l -0.760574,1.449 v 4.33584 2.78225 c 0.0097,0.0251 0.01921,0.05 0.02908,0.0755 0.04678,0.10404 0.07776,0.21545 0.127509,0.31821 0.01808,0.0373 0.06116,0.11133 0.08053,0.14541 0.08107,0.14584 0.157471,0.29376 0.237679,0.44012 0.0445,0.0934 0.09349,0.18477 0.14093,0.27682 v 5.7e-4 c 0.01291,0.0209 0.0256,0.0417 0.03859,0.0626 0.05047,0.0834 0.107497,0.16254 0.164419,0.2416 0.04266,0.0577 0.08634,0.11477 0.126948,0.17392 0.03648,0.052 0.06903,0.10663 0.103461,0.15995 0.03915,0.0523 0.06957,0.10997 0.100663,0.16721 0.0065,0.012 0.01264,0.0237 0.01902,0.0358 0.130837,0.11496 0.232523,0.25682 0.310381,0.40544 0.04089,0.0495 0.07957,0.10021 0.120238,0.14988 0.03634,0.0475 0.077,0.0915 0.116882,0.13591 0.03414,0.0379 0.06442,0.0794 0.09843,0.11744 0.03588,0.0379 0.06885,0.0786 0.102341,0.11855 0.03323,0.0425 0.07175,0.0804 0.106258,0.12192 0.03505,0.0449 0.07106,0.0889 0.104019,0.13534 0.0302,0.0443 0.06473,0.0855 0.09787,0.1275 0.03607,0.0462 0.07185,0.0925 0.111289,0.1359 0.04852,0.0553 0.09462,0.11213 0.14149,0.16889 0.01602,0.0202 0.0315,0.0409 0.04698,0.0615 0.02453,0.025 0.04743,0.0518 0.07214,0.0766 0.101899,0.0937 0.209126,0.18087 0.31933,0.26452 0.09632,0.077 0.19398,0.15202 0.289129,0.23041 0.0659,0.0571 0.126061,0.11992 0.190144,0.1784 0.04715,0.0318 0.09109,0.0677 0.139252,0.0979 0.118875,0.0825 0.249394,0.14747 0.379169,0.21084 0.13715,0.0657 0.279224,0.11955 0.421112,0.17392 0.144924,0.061 0.289206,0.12294 0.432856,0.18678 0.03519,0.0147 0.06891,0.0321 0.101224,0.0515 h 5.91e-4 c 3.116462,0.72344 11.997366,1.61777 21.688665,2.17434 l 8.048664,0.46026 17.169399,-0.25501 c 9.44324,-0.14036 18.01449,-0.3446 19.04734,-0.45411 1.03286,-0.10949 4.17221,-0.34826 6.97492,-0.53017 2.80348,-0.18186 7.29292,-0.71741 9.97638,-1.19007 l 0.2662,-0.047 c 0.0748,-0.0354 0.14983,-0.0698 0.22538,-0.10402 0.24208,-0.107 0.47725,-0.22927 0.71919,-0.33666 0.20162,-0.0988 0.39943,-0.20318 0.59112,-0.32046 0.13862,-0.0754 0.27578,-0.15331 0.41048,-0.23543 0.10901,-0.0672 0.2215,-0.13097 0.3322,-0.19462 0.006,-0.003 0.0105,-0.006 0.0157,-0.009 0.0632,-0.0529 0.12397,-0.1077 0.18678,-0.16106 0.14621,-0.12709 0.28348,-0.26513 0.43622,-0.38476 0.15422,-0.13746 0.31435,-0.2674 0.47311,-0.39931 0.0678,-0.0562 0.13639,-0.11168 0.20636,-0.16498 l 0.77568,-0.86963 c 0.51273,-0.57481 1.19623,-1.80292 1.51891,-2.72855 l 0.58665,-1.68222 -0.63475,-3.05683 -0.63473,-3.0574 -2.60273,-2.60328 c -1.43138,-1.43138 -2.97595,-2.60273 -3.43266,-2.60273 h -0.83047 l 0.023,-0.93842 0.0224,-0.93897 3.5993,-1.79742 3.59874,-1.79686 5.98953,0.60007 5.9884,0.60007 2.94889,-0.34672 2.94891,-0.34674 2.06194,-1.15092 2.06082,-1.15037 1.69955,-2.53115 1.69955,-2.53115 0.81481,-3.62726 c 0.44807,-1.99465 1.07847,-6.03484 1.40091,-8.97533 l 0.5861,-5.3464 -0.0163,-19.16086 -0.0162,-19.15976 -0.83831,-6.61252 c -0.4611,-3.63684 -1.44816,-9.38941 -2.19392,-12.78268 l -1.35617,-6.170732 -0.98651,-1.610068 c -0.54271,-0.885219 -1.78824,-2.091948 -2.76771,-2.682142 l -1.78064,-1.073192 -6.70703,0.215868 c -3.68877,0.118458 -8.76005,0.232539 -11.26768,0.254458 l -5.18589,-0.227614 -0.56987,-0.402097 -1.19511,-0.669417 -2.3838,-0.575424 c -3.19148,-0.215238 -6.632,0.156463 -5.99098,1.405504 z m 4.14678,0.374612 h 5.6e-4 c 0.90645,0.06085 2.65359,1.11847 4.6971,1.804686 l 4.60316,0.89032 8.65712,-0.381406 8.65769,-0.381405 1.81027,0.858441 c 0.99567,0.472409 2.11476,1.3474 2.48697,1.943379 1.2292,1.96808 3.51248,15.46254 4.44712,26.28064 l 0.98763,14.36086 -0.0145,-0.002 c 0,0 -0.59283,19.2488 -0.67222,21.05336 l -0.3568,9.39029 -0.76057,4.21559 -0.76057,4.21616 -1.397,2.85551 -1.397,2.85551 -2.52779,1.22866 -2.52723,1.22922 -8.58498,0.0163 -8.58498,0.0162 -2.74198,1.74373 h -5.6e-4 c -1.50815,0.95908 -3.26885,1.74372 -3.9136,1.74372 h -1.17274 l -1.27285,-1.27284 c -2.42589,-2.42594 -3.14568,-8.47599 -1.62013,-13.61316 l 0.81315,-2.73974 1.64194,-1.3819 c 2.16418,-1.82091 3.0746,-1.74597 6.01524,0.49941 l 2.46292,1.88074 2.67991,0.61853 2.67935,0.61853 2.43104,-0.92836 2.43048,-0.92778 1.34331,-1.59665 c 0.73889,-0.8781 1.73004,-2.85386 2.20231,-4.3884 l 0.85844,-2.79064 0.30591,-6.87033 0.11296,-14.39274 h -0.003 c -3.5e-4,-0.0122 -0.1633,-5.79801 -0.24663,-10.66202 l -0.1454,-8.85342 -1.37238,-5.26642 c -0.75461,-2.89663 -1.86643,-6.06721 -2.47132,-7.04593 l -1.10003,-1.77952 -1.51388,-0.62692 c -0.83231,-0.34479 -3.21301,-0.67496 -5.29102,-0.73373 l -3.77882,-0.10738 -2.70508,2.52668 -2.70563,2.52667 -1.47081,0.36967 -1.47082,0.36854 -0.85565,-0.51842 c -0.47071,-0.28512 -1.30888,-1.42899 -1.86228,-2.54178 l -1.00608,-2.02278 -0.0671,-4.378347 -0.0671,-4.37833 1.34162,-2.682702 1.34107,-2.682701 1.11962,-0.159944 c 0.0769,-0.011 0.182,-0.01354 0.31149,-0.0033 z m 14.34745,15.991065 1.40203,0.63922 1.40203,0.63866 0.80139,1.90983 c 0.44089,1.05036 1.16898,3.59999 1.6179,5.66572 l 0.8165,3.75532 0.2662,8.04867 0.76561,6.79763 0.19797,5.35142 0.16218,-0.01 -0.16162,0.0101 -0.15938,16.28748 -0.54358,3.65411 c -0.29876,2.00963 -0.99827,4.54433 -1.55471,5.63328 l -1.01168,1.98029 -1.84159,0.96805 -1.84104,0.9675 -2.27724,-0.28689 -2.27781,-0.28634 -2.7459,-1.88801 c -1.50998,-1.0387 -2.9738,-1.88913 -3.25258,-1.88913 h -0.50611 l 0.38308,-26.9618 0.38309,-26.96123 2.19559,-1.98979 2.19616,-1.99036 2.79175,-0.0218 z m -44.95496,54.83516 c -3.12254,-0.004 -6.35816,0.003 -9.54241,0.0224 l -18.047417,0.1085 v 1.46353 l 18.001557,0.24608 26.6928,0.36463 v 1.97469 c 0,1.08578 0.15478,2.1278 0.34338,2.3164 h -9.6e-4 c 0.18861,0.18882 0.85238,0.2468 1.47529,0.12918 0.62292,-0.11744 1.62778,-0.23142 2.2325,-0.25333 l 1.09948,-0.0397 -0.22649,-1.93945 -0.22649,-1.94003 0.59559,-0.36799 c 0.32741,-0.20238 1.44345,-0.2687 2.48026,-0.14764 l 1.88522,0.21979 -0.008,0.88081 c -0.0121,1.29129 -0.65825,2.10072 -2.1531,2.69724 l -1.32597,0.5296 1.1045,0.0342 c 0.60759,0.0188 1.54247,-0.28635 2.07705,-0.67725 l 0.9714,-0.71024 0.0699,-2.10668 0.0694,-2.10611 -6.97492,-0.40825 c -2.87666,-0.16833 -11.22491,-0.27832 -20.59254,-0.29026 z m -2.47913,30.89888 -17.974722,0.58441 c -17.557161,0.5709 -21.50333,0.95403 -22.735014,2.20847 l -0.605103,0.61628 1.609509,-0.44069 1.610068,-0.44067 17.437838,0.15434 c 9.590039,0.0846 25.309564,0.35609 34.928804,0.60287 l 17.49097,0.44852 1.55638,0.74603 1.55694,0.74604 v 0.79524 0.79525 l -2.0625,0.67557 -2.06194,0.67556 -18.0586,0.79917 c -9.9314,0.43953 -18.90375,0.84514 -19.93655,0.90094 l -1.87738,0.10122 4.29221,0.34003 c 2.36082,0.18686 11.53812,0.38372 20.39233,0.43789 l 16.10012,0.0984 1.82594,-0.52345 c 1.00438,-0.28804 2.39154,-1.05477 3.082,-1.70346 l 1.25551,-1.17945 v -1.397 c 0,-0.76821 -0.35947,-1.90981 -0.7986,-2.53674 l -0.7986,-1.13974 -2.55464,-0.89536 -2.55519,-0.89646 -15.56045,-0.2869 z"
         sodipodi:nodetypes="cccccccccccccccccccccccccsccccccccccccccccccccccccccccccccccccccccccccccccccccscscccccccccccccccsccccccccccccccccccccccccccccccccccccccccccccccccccsccccccccccccsccccccccscccccccccccccccccccccccccscccccccccccccscccccscccccccccccccscccccsccccccccccccscccccccccccccccccccccscscccccccccccccccccccccccccccccccccccccsccccccccccccccccccscccccccscscccscccccccccccccscccccsccscccccccccccccccccccccscccccccsc" />
      <path
         id="path5668"
         style="fill:#000000;fill-rule:evenodd;stroke-width:0.483648"
         d="m 128.59582,121.43814 a 13.054079,10.495479 0 0 1 -10.60424,4.38414 13.054079,10.495479 0 0 1 -10.47303,-4.23216 11.069859,6.4226065 0 0 0 -0.49227,1.88222 11.069859,6.4226065 0 0 0 11.06984,6.42281 11.069859,6.4226065 0 0 0 11.06983,-6.42281 11.069859,6.4226065 0 0 0 -0.57013,-2.0342 z" />
      <path
         id="path5679"
         style="fill:#000000;fill-rule:evenodd;stroke-width:0.483648"
         d="m 102.98273,121.89551 a 13.054079,10.495479 0 0 1 -10.604234,4.38414 13.054079,10.495479 0 0 1 -10.47303,-4.23216 11.069859,6.4226065 0 0 0 -0.49227,1.88222 11.069859,6.4226065 0 0 0 11.06984,6.42281 11.069859,6.4226065 0 0 0 11.069824,-6.42281 11.069859,6.4226065 0 0 0 -0.57013,-2.0342 z" />
      <ellipse
         style="fill:#000000;fill-rule:evenodd;stroke-width:0.964999"
         id="path5692"
         cx="104.51051"
         cy="144.64529"
         rx="12.349164"
         ry="2.6299145" />
      <path
         style="fill:#d4aa00;fill-rule:evenodd;stroke-width:1.80973"
         d="m 348.28878,711.66256 -86.12681,-0.12686 0.0376,-68.59706 c 0.0207,-37.72839 -0.0337,-81.77096 -0.12074,-97.87237 -0.0871,-16.10141 0.0755,-34.7458 0.36122,-41.43198 0.28575,-6.68618 0.67288,-30.96855 0.86028,-53.96082 l 0.34072,-41.80412 h 115.57083 115.57083 l -0.29947,6.82263 c -0.1647,3.75245 -0.54846,11.73492 -0.85279,17.73884 -0.69022,13.61698 -0.80549,45.18563 -0.22376,61.27964 0.46147,12.76699 -0.40334,40.7555 -1.93179,62.52012 -0.39288,5.59456 -0.84612,14.526 -1.00717,19.84766 -0.16106,5.32165 -0.39273,10.17012 -0.51481,10.77438 -0.15762,0.78013 -0.7784,1.24848 -2.14124,1.61545 -3.54502,0.95458 -83.16798,1.42142 -120.56444,0.70689 -18.45718,-0.35266 -36.6287,-0.65262 -40.38114,-0.66657 l -6.82264,-0.0254 v 3.42251 3.42251 l 6.57454,0.31212 c 9.28184,0.44065 43.53354,1.17403 82.73992,1.7716 83.64285,1.27484 99.67202,1.49128 110.44322,1.49128 h 11.49426 l 0.34844,-17.24265 c 0.46299,-22.91124 -0.26311,-30.30853 -3.12535,-31.84036 -0.55097,-0.29487 -1.9096,-0.53613 -3.01916,-0.53613 h -2.01738 v 20.41208 20.41209 l -4.34168,-0.33379 c -2.38792,-0.18359 -5.70502,-0.46511 -7.37134,-0.62562 l -3.02967,-0.29183 -0.34048,-12.71574 c -0.50292,-18.78215 -1.26641,-100.30786 -1.27963,-136.63954 l -0.0115,-31.6322 h 8.90722 8.90722 l 1.88494,3.59404 1.88495,3.59405 6.57453,1.93531 6.57454,1.93532 0.009,24.11808 c 0.005,13.26494 0.22597,31.5649 0.49161,40.66658 0.38942,13.34293 0.34008,18.77352 -0.25474,28.03482 -0.40574,6.31746 -0.74929,16.84517 -0.76344,23.39489 -0.0141,6.54973 -0.22897,15.70446 -0.47737,20.34385 -0.2484,4.63939 -0.69466,20.77137 -0.99169,35.84884 l -0.54004,27.41357 -6.17935,8.74745 c -3.39864,4.81109 -6.18642,8.99815 -6.19508,9.30458 -0.009,0.30643 -0.98016,7.23952 -2.15893,15.40687 l -2.1432,14.84972 2.10344,10.22174 c 1.15688,5.62195 2.67962,11.87857 3.38385,13.90358 0.70423,2.02502 1.20957,3.75271 1.12297,3.83931 -0.0866,0.0866 -6.72237,0.0982 -14.74615,0.0258 l -14.58869,-0.13167 6.69859,-4.53541 6.69858,-4.53541 3.59181,-7.69411 3.59181,-7.69412 0.95788,-14.56354 c 0.52684,-8.00994 0.86816,-14.65327 0.75848,-14.76294 -0.10967,-0.10967 -5.50632,-0.95572 -11.99256,-1.88011 l -11.79316,-1.68069 -108.66592,0.52903 -108.66592,0.52905 -1.71186,1.70539 c -0.94153,0.93797 -1.61138,1.80109 -1.48858,1.91805 0.12281,0.11695 10.04788,0.56808 22.05571,1.00249 12.00783,0.43441 24.40022,0.90667 27.53863,1.04945 3.13841,0.14279 26.80674,0.48135 52.59629,0.75237 45.36885,0.47677 58.82136,0.77347 93.46272,2.06137 15.70204,0.58377 16.31998,0.6439 16.71153,1.62595 0.22363,0.56087 1.33242,6.49027 2.46399,13.17645 3.29583,19.47427 5.02309,26.29815 6.65661,26.29815 1.15224,0 2.06997,-4.00565 3.51964,-15.36225 1.01195,-7.9275 4.22526,-24.5827 4.84637,-25.11962 0.0596,-0.0516 1.70935,-0.52917 3.66603,-1.06136 l 3.55761,-0.96763 0.6003,4.2289 c 1.61911,11.40622 -1.16925,25.13237 -6.46331,31.81666 -1.98417,2.50522 -7.29994,6.76069 -12.16841,9.74127 l -3.96954,2.43023 -111.84982,0.24809 -111.84983,0.2481 -0.71326,2.13983 c -0.3923,1.1769 -0.58303,2.27006 -0.42385,2.42923 0.39955,0.39956 35.84625,1.50271 67.79218,2.10979 14.60043,0.27746 51.21936,0.51791 81.37539,0.53432 30.15604,0.0164 69.37583,0.21622 87.15511,0.44402 38.39168,0.49188 35.40417,-0.0224 35.40417,6.09506 v 3.86254 l -52.72034,-0.12264 c -28.99618,-0.0675 -91.4774,-0.17972 -138.84714,-0.24948 z m 155.71086,-82.31457 c 4.8393,-0.29226 5.06896,-0.35642 4.86312,-1.35844 -0.11882,-0.57843 -0.46206,-3.3962 -0.76275,-6.2617 -0.30069,-2.86551 -0.65139,-5.71301 -0.77934,-6.32778 -0.1776,-0.85339 0.15113,-1.36114 1.38979,-2.14666 1.49254,-0.94652 2.15866,-1.00939 8.321,-0.78544 3.68422,0.13388 7.08933,0.39809 7.56692,0.58712 0.64439,0.25504 0.86833,0.90996 0.86833,2.53939 0,4.86413 -2.70722,8.29369 -8.39914,10.64017 -2.06665,0.85197 -3.96967,1.74948 -4.22893,1.99446 -0.28086,0.26539 1.04079,0.44542 3.27004,0.44542 3.18183,0 4.18,-0.22372 6.67378,-1.49576 5.72154,-2.9185 5.53331,-2.54606 5.93906,-11.75088 l 0.35425,-8.03663 -1.18429,-0.2398 c -0.65136,-0.13189 -7.99452,-0.60594 -16.31813,-1.05343 -22.98113,-1.23552 -72.47945,-1.74656 -135.08811,-1.39471 l -56.44178,0.31719 v 2.85323 2.85323 l 3.59739,0.27041 c 1.97857,0.14872 32.28966,0.61799 67.35799,1.04281 35.06833,0.42482 71.40814,0.91533 80.75515,1.09002 l 16.99456,0.31761 0.004,3.51977 c 0.005,4.98637 0.84617,11.68172 1.57775,12.56321 0.50078,0.60341 1.38729,0.68726 4.60528,0.43559 2.19182,-0.17141 6.27075,-0.44969 9.06429,-0.6184 z m -92.40886,-73.13961 c 16.3501,-1.39534 27.34413,-4.39071 29.78427,-8.11483 2.97104,-4.53438 -7.48104,-8.62576 -27.55141,-10.78474 -8.59906,-0.92501 -30.95407,-0.78104 -39.69531,0.25565 -12.0636,1.43071 -20.00836,3.43378 -23.94061,6.03601 -1.54396,1.02175 -1.86134,1.5192 -1.86134,2.91731 0,4.75465 9.84181,7.77144 32.25244,9.88629 4.23871,0.39999 25.61231,0.26513 31.01196,-0.19569 z m -48.62676,-64.49324 c 5.62111,-1.28972 9.68025,-2.68248 14.13798,-4.851 6.24037,-3.03571 11.69383,-8.23614 13.37377,-12.75324 1.30012,-3.49581 1.24652,-8.68512 -0.12216,-11.82833 l -0.82929,-1.90449 -3.35632,2.94388 c -4.48704,3.93565 -7.26082,5.75504 -12.69553,8.3273 -7.08252,3.35218 -13.08101,4.74461 -21.8002,5.06049 -8.0345,0.29106 -12.33175,-0.19665 -19.17459,-2.17622 -7.89729,-2.28461 -15.83942,-6.6988 -20.38382,-11.3292 -1.21046,-1.23338 -2.35665,-2.2425 -2.54708,-2.2425 -0.71079,0 -1.9281,4.74314 -1.9281,7.51265 0,4.81489 1.53512,8.02799 5.9011,12.35134 5.60902,5.55424 13.23596,9.07016 24.11848,11.1183 4.62605,0.87064 21.16544,0.72098 25.30576,-0.22898 z m 92.75682,-1.23625 c 9.18639,-1.20424 17.40393,-4.16601 23.36925,-8.42277 6.05918,-4.32374 9.15672,-9.53503 9.14652,-15.38809 -0.006,-3.38014 -1.31761,-7.69097 -2.34025,-7.69097 -0.23086,0 -1.30239,0.91415 -2.38117,2.03144 -6.52894,6.76202 -18.89642,12.40217 -30.24433,13.79282 -6.05884,0.7425 -9.84291,0.69052 -15.97068,-0.21937 -11.10692,-1.64922 -20.71013,-6.01633 -28.35705,-12.89551 -2.10957,-1.89777 -2.73986,-2.23865 -3.10133,-1.67728 -0.99144,1.53973 -1.54479,4.83537 -1.32634,7.89935 0.4081,5.72385 3.69107,10.56728 10.04187,14.81495 10.22757,6.84062 25.78389,9.77152 41.16351,7.75543 z"
         id="path6383"
         transform="scale(0.26458333)" />
    </g>
  </g>
</svg>
