<?xml version="1.0" encoding="UTF-8" standalone="no"?>
<!-- Created with Inkscape (http://www.inkscape.org/) -->

<svg
   width="148mm"
   height="210mm"
   viewBox="0 0 148 210"
   version="1.1"
   id="svg2385"
   inkscape:version="1.2.2 (732a01da63, 2022-12-09)"
   sodipodi:docname="sörgif - 5.svg"
   xmlns:inkscape="http://www.inkscape.org/namespaces/inkscape"
   xmlns:sodipodi="http://sodipodi.sourceforge.net/DTD/sodipodi-0.dtd"
   xmlns="http://www.w3.org/2000/svg"
   xmlns:svg="http://www.w3.org/2000/svg">
  <sodipodi:namedview
     id="namedview2387"
     pagecolor="#ffffff"
     bordercolor="#000000"
     borderopacity="0.25"
     inkscape:showpageshadow="2"
     inkscape:pageopacity="0.0"
     inkscape:pagecheckerboard="0"
     inkscape:deskcolor="#d1d1d1"
     inkscape:document-units="mm"
     showgrid="false"
     inkscape:zoom="0.69296465"
     inkscape:cx="464.67017"
     inkscape:cy="518.78549"
     inkscape:window-width="1920"
     inkscape:window-height="991"
     inkscape:window-x="-9"
     inkscape:window-y="-9"
     inkscape:window-maximized="1"
     inkscape:current-layer="layer1" />
  <defs
     id="defs2382" />
  <g
     inkscape:label="Réteg 1"
     inkscape:groupmode="layer"
     id="layer1">
    <g
       id="g7177"
       transform="matrix(0.83812283,0,0,0.83812283,-16.338352,19.879262)"
       style="display:inline">
      <rect
         style="font-variation-settings:normal;opacity:1;vector-effect:none;fill:#d6ab00;fill-opacity:1;fill-rule:evenodd;stroke:none;stroke-width:0.173614;stroke-linecap:butt;stroke-linejoin:miter;stroke-miterlimit:4;stroke-dasharray:none;stroke-dashoffset:0;stroke-opacity:1;-inkscape-stroke:none;stop-color:#000000;stop-opacity:1"
         id="rect6608"
         width="102.53619"
         height="79.273926"
         x="31.991121"
         y="116.93656"
         rx="1.214214"
         ry="2.1586027" />
      <g
         id="g5348"
         transform="matrix(1.5648883,0,0,1.5648883,-37.39002,-30.059012)">
        <path
           id="path623"
           style="fill:#000000;stroke-width:0.496641"
           d="m 110.11599,50.371031 -2.93599,1.056579 1.89696,0.815514 -0.95495,2.250357 c -0.80255,0.130419 -2.71677,0.164028 -4.38434,0.387872 l -1.49621,0.05496 c -0.40767,0.06251 -1.49304,0.125381 -1.5036,0.214569 -0.004,0.445944 1.26975,0.202449 1.18876,0.646863 0.47031,0.530533 0.33295,2.842438 0.33295,2.842438 l -0.009,0.693112 0.0228,1.87441 -0.33957,5.687419 c -0.18697,3.136189 -0.17915,6.606054 -0.27488,7.697971 -0.0959,1.0926 -0.22052,4.195955 -0.27642,6.896132 l -0.10198,4.909394 0.25883,3.284488 c 0.0581,1.373358 0.10283,2.658023 0.0927,4.226095 l -0.17756,3.633899 h 5.3e-4 l -0.31111,7.550447 c 0,0 -0.26234,3.01412 -0.33907,5.12681 l -0.13976,3.84096 -0.49591,0.19101 c -0.273144,0.10485 -10.051099,0.23254 -21.726798,0.28419 l -19.395828,-0.34838 v 1.58194 l 0.149083,0.0202 c 0.955959,0.13037 12.929414,0.39207 26.605131,0.58132 l 24.866872,0.34423 0.10767,-5.09212 c 0.11787,-5.57313 -0.12515,-6.98361 -1.20405,-6.98361 h -0.71177 v 4.99687 4.99636 l -1.86251,-0.15426 -1.86198,-0.15426 -0.13925,-6.04615 -0.13873,-10.029471 -0.12683,-22.010997 -0.0466,-15.748657 -0.0831,-1.00539 c -0.0449,-1.021422 -0.12172,-1.17184 0.66872,-1.284572 0.48763,-0.05565 1.46805,-0.162508 1.46805,-0.162508 l 0.78558,0.02882 c 0,0 0.13764,0.330263 0.0851,0.63145 l -0.0764,1.069721 -0.0345,2.959444 0.25882,4.157762 1.17299,2.364623 1.17248,2.364631 1.61454,0.475198 1.61353,0.475207 v 9.085273 l 0.21689,9.157222 c 0.0722,0.01258 0.0321,2.162741 0.0321,2.162741 l -0.26867,4.469909 c -0.1475,2.458365 -0.0208,4.968704 -0.0414,4.928034 l -0.10767,3.22392 c 0,0 -0.22687,3.9891 -0.28109,8.24305 l -0.0989,7.73628 -1.5136,2.14722 -1.51362,2.14773 -0.53887,3.74105 -0.53939,3.74158 0.51714,2.65606 c 0.28434,1.46083 0.6847,3.04718 0.88984,3.52519 l 0.37322,0.86914 h -3.89325 -3.89324 l 1.78227,-1.2113 1.78279,-1.21131 0.89864,-1.89304 0.89812,-1.89253 0.22828,-3.55677 0.2288,-3.55729 -2.91851,-0.41619 -2.91799,-0.41567 -26.541463,0.12009 -26.541464,0.11957 -0.421884,0.42189 -0.421884,0.42189 8.587293,0.3256 c 4.722746,0.17915 12.743062,0.32678 17.820616,0.32767 5.077282,8.4e-4 12.914357,0.14667 17.414264,0.32405 l 8.181452,0.3225 0.81323,4.70233 c 1.08994,6.30223 1.56736,6.78278 2.08509,2.09597 0.16559,-1.49834 0.38401,-3.06113 0.48555,-3.47085 0.10162,-0.40973 0.31468,-1.33239 0.47366,-2.05093 l 0.28936,-1.30655 0.94368,-0.24692 0.94367,-0.24691 0.25572,1.5752 c 0.359,2.21217 -0.35348,5.62603 -1.49186,7.15082 -0.52912,0.7096 -1.72834,1.74676 -2.66382,2.30509 l -1.701,1.01512 H 73.887618 46.614198 l -0.181695,0.54404 -0.181178,0.54354 11.321521,0.34475 c 6.226293,0.18966 20.977087,0.31809 32.776553,0.28523 11.799521,-0.0329 21.686701,0.0835 21.969581,0.2583 l 0.51403,0.31784 v 1.88166 0.20758 l 0.39859,0.002 0.11957,1.62542 c -0.0269,0.0167 -0.23354,0.0278 -0.51816,0.0362 v 0.0109 l 2.01055,0.90641 c 1.10607,0.49878 2.65969,1.64576 3.45221,2.5484 l 1.44114,1.64094 0.33595,1.79159 0.33647,1.7921 -0.69882,0.69883 -0.69883,0.69831 -5.44827,0.84273 -5.44878,0.84222 -26.569932,-0.005 -26.570455,-0.005 -7.171522,-0.82824 c -3.943871,-0.45562 -7.379596,-1.03684 -7.6343,-1.29154 -0.699397,-0.69947 -0.880496,-3.34521 -0.32819,-4.79809 0.269454,-0.7087 1.438262,-2.16493 2.597049,-3.23583 l 2.107353,-1.94688 32.598485,0.0657 c 16.361864,0.0331 32.715752,0.36097 35.689892,0.27331 v -1.66372 L 77.518415,144.37179 H 44.744963 l 0.106119,-23.09495 c 0.0049,-5.86354 -0.08131,-11.89074 -0.179107,-17.50692 0,0 0.0095,-0.31286 0.0098,-0.31059 -0.01212,0.0195 -0.044,-2.94802 -0.044,-2.94802 l 0.109224,-4.465762 0.115436,-4.109106 0.131483,-2.191215 0.0026,-2.284381 0.0295,-4.976692 -0.180101,-23.15021 9.228314,1.336621 13.200947,0.420429 12.288611,-0.286668 12.108531,-0.210812 7.659591,-0.846443 3.772039,-0.944302 -0.037,-3.262979 -2.27138,-0.419563 -3.629878,0.389432 -7.801689,0.799897 L 74.020706,56.55547 60.85803,56.46469 49.089709,55.868185 45.24578,54.576067 44.518037,53.78792 l 0.94837,-0.785462 3.227787,-1.771641 3.166396,-0.470979 2.695768,-0.191296 3.179567,0.782785 5.3022,2.654993 0.110967,-1.086223 -0.639787,-1.190514 1.495027,-1.218111 5.518525,-0.957446 5.319778,0.133603 3.176253,0.505675 2.41785,0.851055 -2.342881,2.049846 0.717834,0.153755 3.064577,-1.468788 3.458923,-0.772808 4.354913,-0.788434 3.768678,0.129827 2.919007,0.879261 -0.982361,1.351215 0.67436,-0.332188 1.520824,-0.60063 5.220048,-0.122774 8.85747,0.342169 -1.47113,-1.480599 -3.53415,-0.856635 -4.34158,-0.07672 -3.831009,0.474913 -2.045122,-0.645166 -6.15079,-1.025309 -4.348826,0.746195 c -1.585454,0.230575 -2.476908,0.653894 -3.479185,0.402089 -3.003836,-0.75467 -4.894129,-1.600721 -7.921632,-1.635141 l -6.363956,-0.05581 -4.968394,1.185462 -1.640892,1.118931 -3.23445,-1.078459 -5.193945,-0.272877 -3.417148,0.612523 -3.478309,0.725819 c -1.924702,0.223489 -3.133436,1.052445 -3.89635,1.736585 l -0.598823,1.416167 0.204406,1.613322 0.641679,2.447727 -0.200429,53.669873 -0.833666,33.02702 -1.902882,1.84231 c -1.046765,1.01319 -2.220189,2.44542 -2.607402,3.18303 l -0.704004,1.34123 v 4.01334 2.57531 c 0.009,0.0232 0.01778,0.0463 0.02692,0.0699 0.0433,0.0963 0.07197,0.19942 0.118025,0.29454 0.01674,0.0345 0.05661,0.10305 0.07454,0.13459 0.07504,0.135 0.145759,0.27192 0.220001,0.40739 0.04119,0.0865 0.08654,0.17103 0.130448,0.25623 v 5.3e-4 c 0.01195,0.0193 0.0237,0.0386 0.03572,0.0579 0.04672,0.0772 0.0995,0.15044 0.15219,0.22362 0.03949,0.0534 0.07992,0.10623 0.117506,0.16099 0.03376,0.0481 0.0639,0.0987 0.09577,0.14805 0.03623,0.0484 0.0644,0.10179 0.09318,0.15477 0.006,0.0111 0.01169,0.022 0.0176,0.0331 0.121106,0.10641 0.215229,0.23772 0.287295,0.37529 0.03785,0.0458 0.07365,0.0928 0.111295,0.13873 0.03364,0.0439 0.07127,0.0847 0.108189,0.12579 0.0316,0.0351 0.05962,0.0735 0.09111,0.10871 0.03321,0.0351 0.06373,0.0727 0.09473,0.10974 0.03076,0.0393 0.06641,0.0744 0.09835,0.11285 0.03244,0.0416 0.06577,0.0823 0.09628,0.12527 0.02795,0.041 0.05992,0.0791 0.09059,0.11802 0.03339,0.0428 0.06651,0.0856 0.103012,0.1258 0.04491,0.0512 0.08759,0.10378 0.130966,0.15632 0.01483,0.0187 0.02916,0.0378 0.04348,0.057 0.02271,0.0231 0.0439,0.0479 0.06677,0.0709 0.09432,0.0867 0.193572,0.16742 0.295578,0.24485 0.08916,0.0712 0.179553,0.14071 0.267625,0.21327 0.061,0.0529 0.116684,0.111 0.176002,0.16513 0.04364,0.0294 0.08432,0.0626 0.128894,0.0906 0.110033,0.0764 0.230844,0.13651 0.350967,0.19516 0.126949,0.0608 0.258456,0.11066 0.38979,0.16099 0.134145,0.0564 0.267696,0.1138 0.400661,0.17289 0.03258,0.0136 0.06378,0.0297 0.09369,0.0477 h 5.48e-4 c 2.884664,0.66963 11.105021,1.49745 20.075498,2.01262 l 7.450018,0.42603 15.892373,-0.23605 c 8.740869,-0.12991 16.674598,-0.31897 17.630628,-0.42033 0.95604,-0.10134 3.86189,-0.32236 6.45613,-0.49074 2.59496,-0.16833 6.75049,-0.66404 9.23436,-1.10155 l 0.2464,-0.0435 c 0.0693,-0.0328 0.13868,-0.0646 0.20861,-0.0963 0.22409,-0.099 0.44176,-0.21222 0.66571,-0.31162 0.18662,-0.0915 0.36971,-0.18806 0.54715,-0.29662 0.1283,-0.0698 0.25527,-0.14191 0.37995,-0.21793 0.1009,-0.0622 0.20502,-0.12122 0.30749,-0.18014 0.005,-0.003 0.01,-0.005 0.0145,-0.008 0.0585,-0.049 0.11475,-0.0997 0.17289,-0.14908 0.13533,-0.11764 0.26239,-0.24541 0.40377,-0.35614 0.14276,-0.12723 0.29098,-0.24751 0.43793,-0.36961 0.0627,-0.052 0.12624,-0.10338 0.19101,-0.1527 l 0.71798,-0.80495 c 0.4746,-0.53206 1.10726,-1.66883 1.40594,-2.52561 l 0.54302,-1.5571 -0.58754,-2.82947 -0.58753,-2.83 -2.40914,-2.40965 c -1.32491,-1.32491 -2.7546,-2.40914 -3.17734,-2.40914 h -0.76871 l 0.0213,-0.86862 0.0207,-0.86913 3.33159,-1.66373 3.33107,-1.66321 5.54404,0.55543 5.54299,0.55544 2.72957,-0.32093 2.72957,-0.32095 1.90858,-1.06532 1.90753,-1.06481 1.57314,-2.34289 1.57314,-2.34288 0.75421,-3.35747 c 0.41474,-1.8463 0.99826,-5.58598 1.29672,-8.30776 l 0.5425,-4.94874 -0.0151,-17.735718 -0.015,-17.734686 -0.77597,-6.120694 c -0.4268,-3.366332 -1.34044,-8.691043 -2.03074,-11.831927 l -1.25529,-5.711757 -0.91314,-1.490314 c -0.50234,-0.819379 -1.65524,-1.936353 -2.56185,-2.482649 l -1.6482,-0.99337 -6.20817,0.199813 c -3.41441,0.109647 -8.10849,0.215242 -10.42962,0.235531 l -4.80016,-0.210684 -0.52749,-0.37219 -1.10622,-0.619627 -2.20649,-0.532625 z m 2.79932,2.218842 h 5.2e-4 c 0.83903,0.05632 2.45623,1.03528 4.34774,1.670456 l 4.26078,0.824099 8.01322,-0.353037 8.01374,-0.353037 1.67563,0.794592 c 0.92162,0.437272 1.95747,1.247183 2.30199,1.798834 1.13778,1.821697 3.25123,14.312458 4.11636,24.325926 l 0.91417,13.292728 -0.0135,-0.0018 c 0,0 -0.54873,17.817106 -0.62222,19.487446 l -0.33026,8.69186 -0.704,3.90204 -0.70401,3.90257 -1.29309,2.64312 -1.29309,2.64312 -2.33978,1.13728 -2.33926,1.13779 -7.94644,0.0151 -7.94645,0.015 -2.53803,1.61404 h -5.2e-4 c -1.39597,0.88775 -3.02572,1.61403 -3.62251,1.61403 h -1.08551 l -1.17818,-1.17817 c -2.24546,-2.24551 -2.91171,-7.84556 -1.49963,-12.60064 l 0.75267,-2.53597 1.51981,-1.27911 c 2.00322,-1.68547 2.84592,-1.6161 5.56785,0.46227 l 2.27973,1.74085 2.48058,0.57253 2.48006,0.57252 2.25022,-0.85931 2.24971,-0.85878 1.24339,-1.47789 c 0.68394,-0.81279 1.60137,-2.64159 2.03851,-4.062 l 0.79459,-2.58307 0.28316,-6.35933 0.10456,-13.32223 h -0.003 c -3.3e-4,-0.01134 -0.15115,-5.366767 -0.22828,-9.868996 l -0.13459,-8.194918 -1.27031,-4.87471 c -0.69847,-2.68119 -1.7276,-5.61594 -2.2875,-6.52187 l -1.01821,-1.647161 -1.40129,-0.58029 c -0.77039,-0.319146 -2.97403,-0.624755 -4.89748,-0.679152 l -3.49776,-0.0994 -2.50388,2.338744 -2.50439,2.338743 -1.36141,0.342173 -1.36142,0.341126 -0.79201,-0.479858 c -0.4357,-0.263916 -1.21153,-1.322699 -1.72377,-2.352724 l -0.93125,-1.872334 -0.0621,-4.052688 -0.0621,-4.052678 1.24184,-2.483167 1.24132,-2.483166 1.03634,-0.148048 c 0.0712,-0.01018 0.16847,-0.01254 0.28833,-0.0031 z m 13.28031,14.80168 1.29775,0.591674 1.29775,0.59116 0.74179,1.767775 c 0.4081,0.972234 1.08203,3.332232 1.49756,5.24431 l 0.75577,3.476013 0.2464,7.45002 0.70866,6.292037 0.18325,4.953391 0.15012,-0.0089 -0.1496,0.0093 -0.14753,15.076047 -0.50315,3.38232 c -0.27653,1.86016 -0.92402,4.20633 -1.43907,5.21429 l -0.93643,1.833 -1.70462,0.89605 -1.70411,0.89554 -2.10786,-0.26556 -2.10839,-0.26504 -2.54166,-1.74759 c -1.39767,-0.96144 -2.75262,-1.74862 -3.01066,-1.74862 h -0.46846 l 0.35458,-24.956421 0.35459,-24.9559 2.0323,-1.841796 2.0328,-1.842318 2.58411,-0.0202 z M 84.584335,118.14816 c -2.890293,-0.004 -5.885252,0.003 -8.83266,0.0207 l -16.70508,0.10043 v 1.35469 l 16.662633,0.22776 24.707432,0.33752 v 1.82781 c 0,1.00503 0.14327,1.96954 0.31784,2.14411 h -8.9e-4 c 0.17459,0.17478 0.78899,0.22844 1.36556,0.11958 0.57659,-0.10871 1.50671,-0.21421 2.06646,-0.2345 l 1.0177,-0.0368 -0.20965,-1.79521 -0.20965,-1.79573 0.5513,-0.34061 c 0.30305,-0.18734 1.33608,-0.24873 2.29578,-0.13666 l 1.745,0.20344 -0.007,0.8153 c -0.0112,1.19524 -0.60929,1.94446 -1.99296,2.49662 l -1.22734,0.49021 1.02235,0.0316 c 0.5624,0.0174 1.42774,-0.26506 1.92256,-0.62688 l 0.89915,-0.65741 0.0647,-1.94999 0.0642,-1.94947 -6.45613,-0.37788 c -2.6627,-0.15581 -10.390027,-0.25762 -19.060906,-0.26867 z m -2.294738,28.60068 -16.637789,0.54094 c -16.251289,0.52844 -19.903948,0.88307 -21.044022,2.0442 l -0.560097,0.57045 1.489797,-0.40791 1.490314,-0.4079 16.140841,0.14287 c 8.876748,0.0783 23.427079,0.3296 32.330857,0.55802 l 16.190022,0.41516 1.44062,0.69055 1.44114,0.69054 v 0.73609 0.73611 l -1.90909,0.62532 -1.90858,0.62531 -16.715436,0.73973 c -9.192722,0.40684 -17.497725,0.78228 -18.4537,0.83394 l -1.73775,0.0937 3.972964,0.31474 c 2.185226,0.17296 10.679933,0.35518 18.875587,0.40532 l 14.902615,0.0911 1.69013,-0.48451 c 0.92968,-0.26662 2.21367,-0.97632 2.85277,-1.57677 l 1.16213,-1.09172 v -1.29309 c 0,-0.71107 -0.33274,-1.76777 -0.73921,-2.34806 l -0.7392,-1.05497 -2.36463,-0.82876 -2.36514,-0.82979 -14.403088,-0.26556 z"
           sodipodi:nodetypes="ccccccccccccccccccccccccccccccsccccccccccccccccccccccccccccccccccccccccccccccccccccscscccccccccccccccsccccccccccccccccccccccccccccccccccccccccccccccccccccccccccccccccccccccccccccccccccccccsccccccccccccccccccccsccccccccscccccccccccccccccccccccccscccccccccccccscccccscccccccccccccscccccsccccccccccccccccccccccccccccccccccscscccccccccccccccccccccccccccccccccccccsccccccccccccccccccscccccccscccccscccccccccccccscccccsccscccccccccccccccccccccscccccccs" />
        <ellipse
           style="fill:#000000;fill-rule:evenodd;stroke-width:0.964999"
           id="path2343"
           cx="44.497353"
           cy="140.7444"
           rx="14.504662"
           ry="17.331841"
           transform="matrix(0.68206498,0,0,0.68206498,36.872474,-11.355353)" />
        <ellipse
           style="fill:#ffffff;fill-rule:evenodd;stroke-width:1.17037"
           id="path2345"
           cx="44.251514"
           cy="140.74437"
           rx="10.079511"
           ry="12.66085"
           transform="matrix(0.68206498,0,0,0.68206498,36.872474,-11.355353)" />
        <ellipse
           style="fill:#000000;fill-rule:evenodd;stroke-width:1.16257"
           id="path2399"
           cx="10.944334"
           cy="137.66885"
           rx="8.1127768"
           ry="9.3419857"
           inkscape:transform-center-x="0.32224249"
           inkscape:transform-center-y="2.9001825"
           transform="matrix(0.68206498,0,0,0.68206498,59.267892,-12.225079)" />
        <ellipse
           style="fill:#000000;fill-rule:evenodd;stroke-width:0.964999"
           id="ellipse2406"
           cx="28.360758"
           cy="144.86086"
           rx="14.504662"
           ry="17.331841"
           transform="matrix(0.67772423,-0.07682761,0.07682761,0.67772423,59.267892,-12.225079)" />
        <ellipse
           style="fill:#ffffff;fill-rule:evenodd;stroke-width:1.17037"
           id="ellipse2408"
           cx="34.336037"
           cy="143.48593"
           rx="10.079511"
           ry="12.66085"
           transform="matrix(0.68040687,-0.04753033,0.04753033,0.68040687,59.267892,-12.225079)" />
        <ellipse
           style="fill:#000000;fill-rule:evenodd;stroke-width:1.16257"
           id="ellipse2410"
           cx="43.517548"
           cy="136.06451"
           rx="8.1127768"
           ry="9.3419857"
           transform="matrix(0.68206498,0,0,0.68206498,59.267892,-12.225079)" />
        <ellipse
           style="fill:#000000;fill-rule:evenodd;stroke-width:1.33762"
           id="path5329"
           cx="27.147226"
           cy="171.70654"
           rx="22.913889"
           ry="6.1581674"
           transform="matrix(0.68206498,0,0,0.68206498,59.267892,-12.225079)" />
        <g
           id="g4955"
           transform="matrix(0.59611142,0,0,0.59611142,72.644678,17.90072)" />
      </g>
      <path
         style="fill:#d4aa00;fill-rule:evenodd;stroke-width:5.92276"
         d="m 124.17044,698.77995 c 0.36274,-22.69184 0.41995,-70.49672 0.12714,-106.23306 -0.29282,-35.73633 -0.0895,-108.08851 0.45186,-160.78262 0.54135,-52.6941 0.71576,-117.3727 0.3876,-143.7302 -0.32817,-26.35751 -0.45489,-48.09354 -0.28162,-48.3023 0.17328,-0.20875 11.56423,1.21196 25.31323,3.15716 39.30576,5.56092 84.03665,7.03937 167.75305,5.54456 74.45412,-1.32942 120.46953,-4.39261 137.30355,-9.14013 l 7.2265,-2.03801 -1.61755,33.58353 c -4.41046,91.56986 -5.18062,121.76894 -3.6092,141.52235 1.26529,15.90541 0.94579,34.17601 -1.47698,84.42984 -1.70016,35.27259 -3.31937,64.38834 -3.59825,64.70166 -1.23139,1.38337 -87.9827,2.12984 -163.13272,1.40367 -77.73897,-0.75116 -82.02985,-0.63931 -82.47226,2.14963 -1.25776,7.92886 -2.9059,7.73263 82.60902,9.83537 44.00822,1.08212 112.3551,2.00616 151.88194,2.05338 l 71.86699,0.0859 0.50413,-29.44018 c 0.27776,-16.19208 -0.20826,-32.19336 -1.07981,-35.55837 -1.3836,-5.34203 -2.20589,-6.12906 -6.48177,-6.20369 l -4.89712,-0.0855 -0.004,29.34896 -0.004,29.34898 -9.72256,-1.27882 c -5.3474,-0.70334 -9.90856,-1.44977 -10.13589,-1.65872 -0.83845,-0.77168 -2.08577,-83.72463 -2.46716,-164.15597 -0.21604,-45.56109 -0.60147,-100.74819 -0.8565,-122.63802 -0.25503,-21.88982 -0.0532,-40.26545 0.44862,-40.83471 0.50178,-0.56927 3.91063,-1.46809 7.57524,-1.99738 l 6.66294,-0.96235 0.65309,25.46789 0.65308,25.46789 7.42434,14.97015 7.42432,14.97015 9.12423,2.48035 9.12423,2.48035 0.74932,36.67151 c 0.41212,20.16933 -0.28434,85.23999 -1.54772,144.60147 l -2.29704,107.92995 -8.96877,12.87232 -8.96876,12.87232 -3.03559,22.68506 -3.03558,22.68507 3.78993,16.82315 c 2.08446,9.25276 4.52097,18.24839 5.41447,19.99031 1.56549,3.05202 0.88472,3.15424 -18.72823,2.81189 -11.19403,-0.19539 -20.34653,-0.71311 -20.33889,-1.15051 0.008,-0.43738 3.9247,-3.29464 8.7046,-6.34947 7.55869,-4.83077 9.36939,-7.07553 13.90122,-17.23352 4.58538,-10.27804 5.38866,-14.23472 6.69533,-32.97881 l 1.4848,-21.29955 -16.70192,-2.38938 c -25.47022,-3.64379 -331.67943,-2.44636 -335.57159,1.31224 -1.44478,1.39521 -2.09685,3.08561 -1.44905,3.75644 0.64781,0.67082 69.48051,2.52318 152.96157,4.11635 83.48106,1.59327 152.09881,3.22294 152.48387,3.6217 0.38506,0.39874 2.08679,8.74807 3.78162,18.55406 4.46683,25.84443 7.31295,37.15539 9.86363,39.19965 1.81147,1.45182 0.96867,2.49158 -4.34014,5.35456 l -6.58813,3.55288 -159.57107,0.016 c -87.76409,0.009 -160.45619,0.54195 -161.538,1.18473 -1.0818,0.64278 -1.99167,2.58685 -2.02193,4.32016 -0.0538,3.08023 1.91786,3.18631 87.21598,4.69205 47.99904,0.84757 134.63746,1.53087 192.52982,1.51903 77.30078,-0.0158 106.3034,0.47662 109.19149,1.85397 2.86797,1.36767 3.91017,3.16409 3.84958,6.63541 l -0.0831,4.76001 -13.41056,0.64997 c -7.3758,0.3575 -78.817,0.30279 -158.7582,-0.12155 -79.94121,-0.42435 -164.1696,-0.64817 -187.17421,-0.4974 l -41.82656,0.27406 z m 349.37199,-77.49912 c 6.77621,-0.82685 7.63908,-1.36594 7.08213,-4.42477 -2.42266,-13.30567 -2.22881,-17.19915 0.93711,-18.82306 3.62661,-1.86024 10.35194,-1.98274 17.94049,-0.32678 4.7876,1.04474 5.12526,1.53373 4.14888,6.00817 -1.43931,6.59577 -3.8838,9.11906 -12.55382,12.95855 l -7.3656,3.2618 6.08934,0.61093 c 4.0546,0.40679 8.27761,-0.56916 12.63812,-2.92073 l 6.54878,-3.53165 0.21865,-12.52675 0.21866,-12.52674 -20.68039,-1.57436 c -20.83227,-1.58593 -166.5557,-2.95223 -241.1463,-2.26101 l -40.20413,0.37258 -0.0806,4.61498 -0.0806,4.61497 121.53911,2.12148 121.5391,2.12147 0.82324,10.86042 c 0.90365,11.92101 2.47595,14.00807 9.78709,12.99131 2.68637,-0.3736 8.35665,-1.10296 12.60065,-1.62081 z M 371.64768,527.90881 c 53.88049,-10.64962 53.44699,-31.6731 -0.87956,-42.65719 -7.27392,-1.47069 -24.69662,-2.48465 -48.67495,-2.8328 -32.17899,-0.46716 -39.71335,-0.0823 -54.45747,2.78199 -56.80563,11.03545 -55.95764,33.00642 1.67755,43.4642 20.83138,3.77981 81.6592,3.33033 102.33443,-0.7562 z m -95.2569,-74.32209 c 15.7855,-6.67218 30.15,-23.93029 35.60719,-42.77998 2.31229,-7.98693 2.92048,-14.47125 2.57109,-27.41223 -0.4123,-15.27098 -1.01548,-18.18019 -6.08719,-29.35918 -6.78853,-14.96321 -16.90956,-25.98325 -29.55508,-32.18037 -12.1756,-5.96684 -31.15367,-6.65463 -42.80519,-1.55134 -45.1228,19.76351 -52.61501,94.22411 -12.63318,125.55362 4.28471,3.35746 11.1464,7.33476 15.24821,8.83842 9.86207,3.6153 27.72163,3.08932 37.65415,-1.10894 z m 136.02927,-6.28757 c 10.86064,-5.19226 21.31974,-15.07226 26.74597,-25.26512 15.21865,-28.58723 10.15858,-68.51958 -11.61995,-91.70089 -20.64077,-21.97024 -53.08156,-24.72497 -74.29785,-6.30903 -40.09439,34.80228 -26.83021,110.1194 22.1947,126.02664 2.22063,0.72053 9.21686,1.46328 15.54721,1.65057 9.73021,0.28791 13.04344,-0.39275 21.42992,-4.40217 z"
         id="path6604"
         transform="scale(0.26458333)" />
      <path
         style="fill:#d4aa00;fill-rule:evenodd;stroke-width:4.18802"
         d="m 468.18747,705.79348 c 0.50414,-1.22197 2.02403,-9.95444 3.37753,-19.40549 2.77469,-19.37465 6.18565,-36.0927 7.69776,-37.7288 0.55674,-0.60239 3.04519,-1.65713 5.52989,-2.34386 l 4.51765,-1.24861 0.6709,7.49874 c 0.96902,10.83083 -0.53707,25.01092 -3.52125,33.15319 -2.6635,7.26729 -8.95663,15.27631 -15.5671,19.81163 -3.38242,2.32061 -3.56137,2.33802 -2.70538,0.2632 z"
         id="path6606"
         transform="scale(0.26458333)" />
    </g>
  </g>
</svg>
