<?xml version="1.0" encoding="UTF-8" standalone="no"?>
<!-- Created with Inkscape (http://www.inkscape.org/) -->

<svg
   width="148mm"
   height="210mm"
   viewBox="0 0 148 210"
   version="1.1"
   id="svg5"
   xml:space="preserve"
   inkscape:version="1.2.2 (732a01da63, 2022-12-09)"
   sodipodi:docname="sörgif - 6.svg"
   xmlns:inkscape="http://www.inkscape.org/namespaces/inkscape"
   xmlns:sodipodi="http://sodipodi.sourceforge.net/DTD/sodipodi-0.dtd"
   xmlns="http://www.w3.org/2000/svg"
   xmlns:svg="http://www.w3.org/2000/svg"><sodipodi:namedview
     id="namedview7"
     pagecolor="#ffffff"
     bordercolor="#000000"
     borderopacity="0.25"
     inkscape:showpageshadow="2"
     inkscape:pageopacity="0.0"
     inkscape:pagecheckerboard="0"
     inkscape:deskcolor="#d1d1d1"
     inkscape:document-units="mm"
     showgrid="false"
     inkscape:zoom="1.1572757"
     inkscape:cx="212.17552"
     inkscape:cy="469.95558"
     inkscape:window-width="1920"
     inkscape:window-height="991"
     inkscape:window-x="-9"
     inkscape:window-y="-9"
     inkscape:window-maximized="1"
     inkscape:current-layer="layer1"
     inkscape:rotation="-1" /><defs
     id="defs2" /><g
     inkscape:label="Réteg 1"
     inkscape:groupmode="layer"
     id="layer1"
     style="display:inline"
     transform="matrix(1.1428051,0,0,1.1428051,-58.854061,-68.35644)"><g
       id="g3242"><rect
         style="font-variation-settings:normal;vector-effect:none;fill:#d6ab00;fill-opacity:1;fill-rule:evenodd;stroke:none;stroke-width:0.119488;stroke-linecap:butt;stroke-linejoin:miter;stroke-miterlimit:4;stroke-dasharray:none;stroke-dashoffset:0;stroke-opacity:1;-inkscape-stroke:none;stop-color:#000000"
         id="rect8010"
         width="41.295288"
         height="55.995323"
         x="99.327271"
         y="139.25627"
         rx="0.89049351"
         ry="1.5830996" /><rect
         style="font-variation-settings:normal;vector-effect:none;fill:#d6ab00;fill-opacity:1;fill-rule:evenodd;stroke:none;stroke-width:0.16186;stroke-linecap:butt;stroke-linejoin:miter;stroke-miterlimit:4;stroke-dasharray:none;stroke-dashoffset:0;stroke-opacity:1;-inkscape-stroke:none;stop-color:#000000"
         id="rect8008"
         width="75.52951"
         height="56.177708"
         x="59.909126"
         y="165.90543"
         rx="0.89049351"
         ry="1.5830996" /><path
         id="path5063"
         style="fill:#000000;fill-rule:evenodd;stroke-width:0.508452"
         d="m 115.03848,170.13314 c -1.86596,3.34073 -8.00566,5.65473 -15.00794,5.65633 -6.83563,-0.001 -12.870954,-2.20839 -14.88229,-5.44225 -0.734858,0.99106 -1.113646,2.04611 -1.116901,3.11086 -7e-5,4.72096 7.225849,8.54811 16.139591,8.54811 8.91373,0 16.13965,-3.82715 16.13958,-8.54811 -3.4e-4,-1.14218 -0.43288,-2.2728 -1.27204,-3.32494 z"
         sodipodi:nodetypes="ccccccc" /><ellipse
         style="fill:#000000;fill-rule:evenodd;stroke-width:0.703912"
         id="ellipse4951"
         cx="88.046005"
         cy="153.0948"
         rx="10.580294"
         ry="12.642554" /><ellipse
         style="fill:#ffffff;fill-rule:evenodd;stroke-width:0.853717"
         id="ellipse4953"
         cx="87.866661"
         cy="153.0947"
         rx="7.3524075"
         ry="9.235342" /><ellipse
         style="fill:#000000;fill-rule:evenodd;stroke-width:0.848023"
         id="ellipse4957"
         cx="87.866661"
         cy="154.40137"
         rx="5.9177914"
         ry="6.8144264" /><path
         id="path4977"
         style="fill:#000000;fill-rule:evenodd;stroke-width:0.349963"
         d="m 104.82257,159.46523 c 0.31513,-2.59797 3.63959,-5.65806 8.12596,-7.48017 4.3804,-1.77689 8.82917,-1.95074 10.97002,-0.42873 0.20986,-0.81783 0.17454,-1.58358 -0.10389,-2.25777 -1.24399,-2.98549 -6.88259,-3.52648 -12.59412,-1.20832 -5.71153,2.31823 -9.33311,6.61774 -8.08905,9.60323 0.30129,0.72225 0.87629,1.32475 1.69128,1.7719 z"
         sodipodi:nodetypes="cccccccc" /><path
         id="path4975"
         style="fill:#000000;fill-rule:evenodd;stroke-width:0.343533"
         d="m 104.29217,160.70652 c 1.29483,-2.25035 5.43843,-3.74272 10.12864,-3.64783 4.57856,0.0942 8.5914,1.68069 9.89502,3.9113 0.50561,-0.6649 0.77351,-1.3787 0.79006,-2.104 0.0623,-3.21613 -4.72491,-5.92236 -10.6954,-6.04447 -5.97057,-0.1219 -11.0611,3.09693 -11.38047,4.32319 -0.0138,0.77815 0.71422,2.83354 1.26215,3.56181 z"
         sodipodi:nodetypes="ccccccc" /><path
         style="fill:#000000;fill-opacity:1;fill-rule:evenodd;stroke-width:0.964999"
         id="path7781"
         d="m 135.89565,222.01384 c 0.38979,0.007 0.77958,0.0136 1.16938,0.0204 0.44311,0.008 0.88623,0.0155 1.32935,0.0232 0.25952,0.005 0.51904,0.009 0.77857,0.0136 1.76749,0.0309 1.77622,-0.46907 0.009,-0.49992 v 0 c -0.25953,-0.005 -0.51905,-0.009 -0.77857,-0.0136 -0.44311,-0.008 -0.88623,-0.0155 -1.32935,-0.0232 -0.38979,-0.007 -0.77958,-0.0136 -1.16938,-0.0204 -1.76749,-0.0309 -1.77622,0.46907 -0.009,0.49992 z" /><path
         style="fill:#000000;fill-opacity:1;fill-rule:evenodd;stroke-width:0.964999"
         id="path7783"
         d="m 136.22628,221.69926 c 0.27306,-0.0408 0.5503,-0.0411 0.82577,-0.0446 0.35436,-0.003 0.70871,0.003 1.06302,0.008 0.30337,0.003 0.60571,0.0309 0.9085,0.0474 0.17556,0.009 0.0897,0.005 0.25755,0.0118 1.76618,0.0747 1.78731,-0.42485 0.0211,-0.49956 v 0 c -0.16378,-0.007 -0.0799,-0.003 -0.25153,-0.0114 -0.30914,-0.0168 -0.61781,-0.0455 -0.92755,-0.0481 -0.35918,-0.006 -0.71841,-0.0112 -1.07765,-0.008 -0.31103,0.004 -0.62461,0.004 -0.93202,0.0575 -1.72221,0.39875 -1.60943,0.88586 0.11278,0.48711 z" /><path
         style="fill:#000000;fill-opacity:1;fill-rule:evenodd;stroke-width:0.964999"
         id="path7785"
         d="m 135.95825,221.49628 c 0.27763,-8e-4 0.55448,0.0169 0.83144,0.0338 0.22153,0.0185 0.44434,0.0166 0.66605,0.0306 0.0722,0.005 0.25774,0.0254 0.3266,0.0328 0.30501,0.0355 0.61111,0.059 0.91771,0.0748 0.23231,0.0106 0.46487,0.0142 0.69737,0.0183 0.0346,5.2e-4 0.0691,0.001 0.10368,0.002 1.76752,0.0297 1.7759,-0.47028 0.008,-0.49993 v 0 c -0.0344,-5.3e-4 -0.0688,-0.001 -0.10327,-0.002 -0.22685,-0.004 -0.45375,-0.007 -0.68042,-0.0177 -0.29738,-0.0153 -0.59425,-0.0381 -0.89008,-0.0726 -0.33782,-0.0362 -0.67625,-0.0489 -1.01552,-0.0653 -0.28421,-0.0174 -0.56833,-0.0353 -0.85323,-0.0347 -1.76749,-0.0309 -1.77622,0.46908 -0.009,0.49993 z" /><path
         style="fill:#000000;fill-opacity:1;fill-rule:evenodd;stroke-width:0.964999"
         id="path7787"
         d="m 136.19765,222.44542 c 0.61299,-0.0173 1.22649,-0.007 1.83959,-2.7e-4 0.73947,0.009 1.4789,0.021 2.21831,0.0336 0.25118,0.004 0.13221,0.002 0.35693,0.006 1.76749,0.0311 1.7763,-0.46877 0.009,-0.49993 v 0 c -0.22491,-0.004 -0.10584,-0.002 -0.35722,-0.006 -0.74042,-0.0126 -1.48086,-0.0247 -2.22134,-0.0336 -0.62481,-0.007 -1.25005,-0.0175 -1.87473,0.001 -1.76466,0.1048 -1.73501,0.60392 0.0297,0.49912 z" /><path
         style="fill:#000000;fill-opacity:1;fill-rule:evenodd;stroke-width:0.964999"
         id="path7789"
         d="m 135.8449,222.44517 c 0.24334,0.001 0.48619,0.009 0.72901,0.0248 0.34787,0.0121 0.69316,0.0491 1.03914,0.0848 0.34445,0.0377 0.69052,0.0546 1.03666,0.0665 0.33426,0.01 0.66863,0.0151 1.00298,0.0207 0.19248,0.003 0.0986,0.002 0.28162,0.005 1.76753,0.0293 1.77581,-0.47065 0.008,-0.49993 v 0 c -0.18292,-0.003 -0.0891,-0.002 -0.28143,-0.005 -0.33147,-0.006 -0.66297,-0.0108 -0.99435,-0.0205 -0.33472,-0.0114 -0.66939,-0.0277 -1.00248,-0.0642 -0.35242,-0.0363 -0.70424,-0.0737 -1.05854,-0.0864 -0.25053,-0.016 -0.5011,-0.0243 -0.75216,-0.0257 -1.7675,-0.0308 -1.77623,0.46907 -0.009,0.49992 z" /><path
         style="fill:#000000;fill-opacity:1;fill-rule:evenodd;stroke-width:0.964999"
         id="path7791"
         d="m 135.41556,222.47486 c 0.35538,0.002 0.71065,0.0388 1.0631,0.0826 0.40156,0.0575 0.80516,0.0965 1.20746,0.14804 0.38282,0.0486 0.76809,0.0721 1.15339,0.0898 0.22745,0.009 0.45506,0.0136 0.68266,0.0174 0.0812,0.001 0.16236,0.003 0.24354,0.004 1.76755,0.0275 1.77533,-0.47243 0.008,-0.49994 v 0 c -0.081,-10e-4 -0.16201,-0.002 -0.24301,-0.004 -0.22273,-0.004 -0.44548,-0.008 -0.66808,-0.0169 -0.3717,-0.017 -0.7434,-0.0395 -1.11274,-0.0863 -0.40305,-0.0516 -0.80738,-0.0907 -1.2097,-0.14832 -0.3836,-0.0471 -0.77036,-0.0885 -1.15722,-0.0853 -1.76395,0.11603 -1.73113,0.61496 0.0328,0.49892 z" /><path
         style="fill:#000000;fill-opacity:1;fill-rule:evenodd;stroke-width:0.964999"
         id="path7793"
         d="m 138.24052,222.40322 c 0.20942,0.0977 0.42067,0.19262 0.63642,0.27562 0.28488,0.11145 0.57531,0.20699 0.86428,0.30719 0.16337,0.0511 0.32006,0.11937 0.48337,0.17072 1.68753,0.52654 1.83646,0.0492 0.14893,-0.4773 v 0 c -0.15855,-0.049 -0.30965,-0.11786 -0.46856,-0.16585 -0.28413,-0.0984 -0.5697,-0.19218 -0.84974,-0.30189 -0.22024,-0.0832 -0.43312,-0.18467 -0.64833,-0.28 -1.66704,-0.5882 -1.8334,-0.11669 -0.16637,0.47151 z" /><path
         style="fill:#000000;fill-opacity:1;fill-rule:evenodd;stroke-width:0.964999"
         id="path7795"
         d="m 138.29716,222.53065 c 0.24398,0.14061 0.49348,0.27108 0.73807,0.4109 0.20347,0.1343 0.41236,0.25847 0.63258,0.3632 0.13701,0.0586 0.26704,0.13 0.40706,0.18224 0.092,0.0281 0.0514,0.0134 0.12269,0.0419 1.65037,0.63344 1.82954,0.16664 0.17916,-0.4668 v 0 c -0.0979,-0.0367 -0.0542,-0.0227 -0.13024,-0.0447 -0.12657,-0.0446 -0.24072,-0.11521 -0.36514,-0.16473 -0.2092,-0.0979 -0.4042,-0.21981 -0.59797,-0.34515 -0.25012,-0.14299 -0.50532,-0.27624 -0.75483,-0.42007 -1.5671,-0.81805 -1.79848,-0.37481 -0.23138,0.44324 z" /><path
         style="fill:#d6ab00;fill-opacity:1;fill-rule:evenodd;stroke-width:1.35198"
         d="m 61.468285,208.81887 c -0.0065,-6.69925 -0.0479,-19.02125 -0.09192,-27.38222 -0.04401,-8.36097 0.02424,-21.9984 0.151662,-30.3054 0.217357,-14.16935 0.27193,-15.10258 0.882208,-15.08661 1.584155,0.0415 1.713669,0.49311 1.888379,6.58505 0.09251,3.22574 0.264625,6.6135 0.382473,7.52836 0.47121,3.65795 2.721758,6.3588 5.336659,6.40444 1.291064,0.0225 1.716786,-0.18886 2.924696,-1.45229 1.781022,-1.86288 2.255192,-3.98631 2.567686,-11.49863 0.247635,-5.95305 0.712185,-7.74739 2.718404,-10.4999 1.255818,-1.72297 2.920693,-2.67515 8.717327,-4.98565 l 4.078872,-1.62581 2.489777,1.20073 c 3.497726,1.68683 6.850942,2.15277 10.735362,1.49171 7.23739,-1.23168 10.26748,-2.55759 13.43639,-5.87946 0.80986,-0.84895 1.31596,-1.3339 2.16685,-1.63246 1.04947,-0.36823 2.62344,-0.45293 5.93872,-0.58734 l 1.29851,-0.0526 -0.1067,3.52017 c -0.0587,1.93609 -0.40588,16.49825 -0.77155,32.36035 -0.54023,23.43502 -0.75802,28.89555 -1.16207,29.13562 -0.27348,0.16249 -4.43774,0.33543 -9.2539,0.3843 -13.02674,0.1322 -29.266577,0.40237 -34.624342,0.57603 -3.441277,0.11154 -4.731848,0.28098 -4.737801,0.62202 -0.0045,0.2578 0.253867,0.57457 0.574145,0.70393 0.320281,0.12936 14.013596,0.46964 30.429588,0.75618 l 29.84726,0.52099 -0.0389,-6.39596 c -0.0408,-6.70764 -0.31993,-8.06919 -1.65905,-8.09256 -0.69255,-0.0121 -0.73313,0.26866 -0.82849,5.73202 l -0.10028,5.74473 -1.98267,-0.0346 -1.98268,-0.0346 -0.1108,-7.6948 c -0.0609,-4.23214 -0.14824,-14.70245 -0.19401,-23.26736 -0.0458,-8.56491 -0.11082,-19.74662 -0.14458,-24.84825 l -0.0614,-9.27569 1.75352,-0.81442 c 0.96445,-0.44793 1.80455,-0.76159 1.8669,-0.69703 0.0624,0.0646 -0.0801,1.44609 -0.31651,3.07005 -0.69648,4.78386 -0.29481,8.65246 1.23369,11.88212 1.25687,2.65571 1.33949,2.74089 3.1645,3.26232 l 1.87393,0.53543 0.10417,8.34096 c 0.0573,4.58752 -0.0633,17.1802 -0.2681,27.98371 l -0.37226,19.64276 -1.78752,2.56398 c -1.74504,2.50307 -1.8009,2.66786 -2.35079,6.93569 -0.58561,4.54505 -0.39409,7.15933 0.78677,10.73988 l 0.46116,1.39833 -3.68983,-0.0644 c -2.02942,-0.0354 -3.68877,-0.12564 -3.68747,-0.20047 0.001,-0.0748 0.67637,-0.56536 1.50013,-1.09006 1.10925,-0.70655 1.78876,-1.56715 2.6197,-3.31783 0.97796,-2.06046 1.14725,-2.88646 1.31911,-6.4359 l 0.19716,-4.07207 -0.92302,-0.21936 c -2.76871,-0.65799 -11.92231,-0.82897 -37.988536,-0.70959 -26.531784,0.12152 -28.976531,0.18509 -29.603636,0.76985 -0.651955,0.60793 -0.190048,0.65609 9.991812,1.04173 5.871454,0.22239 15.096762,0.38656 20.500687,0.36485 5.403923,-0.0217 14.094323,0.15989 19.311993,0.40358 l 9.48667,0.44308 0.42674,2.65496 c 0.46613,2.90004 1.4831,7.53257 1.85165,8.43474 0.15535,0.38025 -0.11121,0.76157 -0.80475,1.15122 -0.90806,0.51018 -4.14925,0.57918 -26.06154,0.55487 -34.619627,-0.0384 -37.705158,0.0308 -37.935057,0.85118 -0.168553,0.60146 0.39634,0.67636 7.457058,0.9888 4.201684,0.18592 21.172165,0.39473 37.712179,0.46399 16.54002,0.0693 30.34258,0.23493 30.67237,0.36813 0.35575,0.14369 0.59171,0.66141 0.58019,1.27301 l -0.0195,1.03083 -6.94952,-0.0253 c -21.55342,-0.0785 -53.762318,-0.0947 -61.68266,-0.031 l -9.133366,0.0735 z m 67.861625,-10.81035 1.45084,0.0253 -0.0669,-2.3183 -0.0669,-2.31829 2.31835,-0.0699 c 2.21923,-0.0669 2.3177,-0.0326 2.3031,0.8035 -0.0204,1.16613 -0.66035,1.88801 -2.45821,2.77273 l -1.49581,0.73607 1.5249,0.043 c 1.00096,0.0282 1.86504,-0.21507 2.51486,-0.70811 0.88296,-0.66993 0.99438,-1.00436 1.03086,-3.09427 l 0.0409,-2.34316 -5.83261,-0.37568 c -7.60925,-0.49012 -36.141058,-0.53399 -48.658403,-0.0748 -5.407007,0.19834 -11.915796,0.3296 -14.463974,0.29168 -3.806439,-0.0567 -4.502211,0.014 -3.899692,0.396 0.557237,0.35329 8.009716,0.61811 31.030283,1.10266 l 30.296916,0.63771 -0.0252,1.4422 c -0.0138,0.79321 0.13732,1.89313 0.33592,2.44426 0.31534,0.8751 0.50736,0.97546 1.51548,0.79207 0.63491,-0.11549 1.80726,-0.19859 2.60523,-0.18467 z m -25.85217,-16.05243 c 5.55107,-0.66869 10.07619,-2.67322 11.91282,-5.27711 1.09326,-1.54998 1.27186,-3.93078 0.42341,-5.64415 l -0.55938,-1.12961 -1.6993,1.51237 c -2.89289,2.57464 -6.75061,3.83838 -12.44041,4.07528 -6.089774,0.25356 -11.746561,-1.33418 -14.868483,-4.17327 l -1.353968,-1.23131 -0.60824,1.38716 c -2.27072,5.17862 4.717563,10.2159 14.925183,10.75833 0.749202,0.0398 2.669968,-0.0851 4.268368,-0.27769 z M 91.457572,165.30666 c 0.69967,-0.2781 2.06012,-1.20694 3.023227,-2.0641 6.552881,-5.83202 5.379829,-17.85059 -2.140362,-21.92921 -2.131208,-1.15587 -6.116124,-1.24422 -8.235945,-0.1826 -2.119987,1.06171 -4.164713,3.16825 -5.385707,5.54853 -0.95028,1.85253 -1.056167,2.43108 -1.120606,6.12275 -0.06031,3.45522 0.05223,4.35723 0.738005,5.9152 1.987145,4.51446 5.309166,6.98091 9.501052,7.05408 1.291519,0.0225 2.92067,-0.18655 3.620336,-0.46465 z m 14.005258,-5.52612 c 4.0687,-3.66989 15.25957,-3.04967 18.4456,1.02228 1.22114,1.5607 1.71613,-2.66749 0.51691,-4.41542 -1.47785,-2.15406 -7.805,-4.24247 -11.36293,-3.75059 l -1.35648,0.18753 1.4943,-0.64991 c 3.28667,-1.42946 7.23965,-1.73678 10.11641,-0.78647 0.72849,0.24064 0.83167,0.14348 0.84811,-0.79867 0.0438,-2.51048 -2.0125,-3.86827 -5.96279,-3.93722 -6.19199,-0.10808 -12.88822,3.36334 -14.91189,7.73053 -0.46693,1.00767 -0.66776,1.99239 -0.53917,2.64373 0.20134,1.01977 1.24082,3.83659 1.41695,3.83966 0.0494,7.9e-4 0.63214,-0.48759 1.29498,-1.08545 z"
         id="path7797"
         sodipodi:nodetypes="ssscssssssscssssccsssssssscsssccccsscsscsscsccssscscssscsssssscssssssssccsscsccccssscssscsscssccsssccsscssscsscssssssscscssscsssssscc" /><path
         style="fill:#d6ab00;fill-opacity:1;fill-rule:evenodd;stroke-width:1.35198"
         d="m 128.91133,211.71861 c 0.15657,-1.52657 0.5733,-4.10521 0.92606,-5.73031 0.60341,-2.7798 0.70185,-2.96062 1.66266,-3.05421 l 1.02127,-0.0995 -0.0461,2.64021 c -0.0651,3.73155 -0.68079,5.65512 -2.39142,7.47185 l -1.45717,1.54754 z"
         id="path8006" /></g><g
       id="g4910"
       transform="matrix(0.59611142,0,0,0.59611142,224.99125,26.658919)" /><g
       id="g4996"
       transform="matrix(0.68206497,0,0,0.68206497,171.48109,-14.949903)"><g
         id="g5073"
         transform="translate(-164.51981,3.9949622)" /></g><g
       id="g5061"
       transform="matrix(3.9876293,0,0,4.0557562,-242.08851,-126.93933)" /><path
       id="path2670"
       style="fill:#000000;stroke-width:0.570734"
       d="m 106.44258,92.303575 -2.97621,-0.130903 c -3.21322,-0.498679 -7.043695,-0.184234 -9.166611,1.490148 l -5.130222,3.961722 c -2.397605,-0.788327 -4.421754,-0.90233 -6.57175,-0.732711 -2.116821,0.166919 -2.434105,1.114685 -6.024104,2.561199 l -5.363771,1.23755 c -2.799594,0.85025 -4.165003,1.50006 -6.691155,3.17915 l -3.482299,4.10218 -1.454756,1.885 c -0.554779,1.25155 -0.768934,1.66081 -1.015503,3.14701 0.196009,1.92871 0.288818,4.1765 0.288818,5.12101 -1.516882,2.88583 -3.106073,6.01995 -3.015757,7.75397 -0.588025,2.64265 -0.193238,3.72526 0.01385,4.66576 0.417643,2.17216 1.184569,2.83353 2.288795,3.82666 l -0.438421,47.06887 -0.210553,39.09416 -2.187398,2.11668 c -1.202784,1.16435 -2.551363,2.81054 -2.996364,3.65816 l -0.809521,1.5414 v 4.61201 2.96014 c 0.0069,0.0277 0.02078,0.0485 0.0277,0.0796 0.04848,0.11013 0.08242,0.22926 0.135752,0.33869 0.02078,0.0416 0.06233,0.11774 0.08173,0.15445 0.08173,0.15514 0.168304,0.31306 0.254188,0.4689 0.04156,0.0997 0.102506,0.1967 0.149603,0.29505 v 5.5e-4 c 0.0069,0.0208 0.02771,0.0416 0.04156,0.0623 0.04848,0.0893 0.11428,0.17246 0.17523,0.25626 0.04156,0.0554 0.09281,0.12329 0.135059,0.18562 0.04156,0.0485 0.07203,0.1129 0.110124,0.16969 0.04156,0.0485 0.07203,0.11705 0.106662,0.17731 0.0066,0.0138 0.0068,0.0277 0.02078,0.0416 0.139907,0.1226 0.245877,0.2722 0.329682,0.43081 0.04156,0.0485 0.08173,0.10735 0.126748,0.1593 0.04156,0.0485 0.08242,0.0963 0.124669,0.14406 0.04156,0.0416 0.07134,0.0852 0.102506,0.12467 0.04156,0.0416 0.07203,0.0838 0.109433,0.12536 0.0277,0.0416 0.07203,0.0845 0.112895,0.13021 0.04156,0.0485 0.07203,0.0942 0.110817,0.14337 0.0277,0.0416 0.07203,0.0914 0.103199,0.13575 0.04156,0.0416 0.07203,0.0983 0.117743,0.14476 0.04848,0.0554 0.102507,0.11982 0.150989,0.17938 0.02078,0.0208 0.02771,0.0416 0.04848,0.0623 0.0277,0.0277 0.04848,0.0485 0.07272,0.0817 0.108739,0.0997 0.221635,0.19254 0.339378,0.2812 0.102506,0.0817 0.206398,0.16137 0.308211,0.24449 0.07203,0.0554 0.134366,0.12744 0.202242,0.18977 0.04848,0.0346 0.09281,0.0727 0.147525,0.10389 0.126055,0.0873 0.26527,0.15722 0.403099,0.2251 0.145448,0.0713 0.296436,0.12744 0.447425,0.18493 0.153759,0.0623 0.307518,0.13021 0.460585,0.19808 0.04156,0.0139 0.07203,0.0346 0.107354,0.0485 l 6.24e-4,5.5e-4 c 3.314964,0.76963 12.762079,1.72051 23.070869,2.31241 l 8.561546,0.48968 18.263265,-0.27151 c 10.04491,-0.1496 19.16227,-0.36639 20.26081,-0.48274 1.0987,-0.11636 4.43852,-0.36986 7.41964,-0.56309 2.98224,-0.19394 7.75791,-0.76291 10.61229,-1.26575 l 0.28259,-0.0485 c 0.0817,-0.0346 0.15861,-0.0741 0.24033,-0.11082 0.25696,-0.11428 0.50769,-0.2438 0.7652,-0.35808 0.21471,-0.10527 0.42457,-0.21678 0.62889,-0.34076 0.14752,-0.0796 0.29366,-0.16276 0.43703,-0.25072 0.11636,-0.072 0.23618,-0.13991 0.35254,-0.20709 0.006,-0.003 0.007,-0.006 0.0208,-0.007 0.072,-0.0554 0.13229,-0.11497 0.19878,-0.17177 0.15445,-0.13436 0.30128,-0.28189 0.46405,-0.40864 0.16414,-0.14614 0.33453,-0.28397 0.50283,-0.42457 0.072,-0.0554 0.14406,-0.11913 0.21886,-0.17661 l 0.82469,-0.92464 c 0.54578,-0.61157 1.27288,-1.91769 1.61621,-2.9023 l 0.62334,-1.7897 -0.6746,-3.2516 -0.6746,-3.25221 -2.76856,-2.76912 c -1.52263,-1.52256 -3.1655,-2.76856 -3.65116,-2.76856 h -0.8837 l 0.0277,-0.99826 0.0277,-0.99874 3.82874,-1.91174 3.82813,-1.91174 6.37062,0.63858 6.37061,0.63859 3.13655,-0.36778 3.13717,-0.36846 2.19265,-1.22426 2.19266,-1.22363 1.80778,-2.69266 1.80771,-2.69265 0.8668,-3.85846 c 0.47582,-2.12166 1.14758,-6.41847 1.49056,-9.54636 l 0.62335,-5.68784 -0.0208,-20.38113 -0.0208,-20.38057 -0.89188,-7.0342 c -0.49036,-3.86857 -1.54015,-9.98742 -2.3334,-13.59695 l -1.44215,-6.56399 -1.04958,-1.71255 c -0.57763,-0.9416 -1.90252,-2.22487 -2.94441,-2.85265 l -1.89415,-1.1419 -7.13408,0.22925 c -3.92377,0.12536 -9.31801,0.24726 -11.98546,0.27081 l -5.51614,-0.24241 -2.50738,-0.3747 -3.22541,-1.66309 0.65313,-2.66045 c 0.71581,-2.4312 0.30959,-3.77611 -0.78473,-6.04544 -2.62928,-3.7725 -5.33614,-4.997727 -6.31493,-5.339322 -1.05907,-0.645511 -2.11246,-1.322813 -5.32221,-1.725981 -0.80225,-0.320678 -2.29095,-0.35323 -4.06686,-0.423876 -1.87116,0.01385 -4.49407,0.36916 -4.57032,-0.258344 -0.96695,-0.187697 -1.89387,-1.71947 -3.71142,-2.637662 -3.60385,-1.413199 -5.65529,-1.331748 -9.56326,-2.007734 z m 12.01122,6.967368 2.80084,-0.543006 2.89344,0.06995 c 0,0 2.19003,0.06233 4.1702,0.617114 7.77474,2.796619 10.93339,6.178559 10.76474,8.755689 -0.26458,2.21946 -1.14475,3.90901 -1.8954,5.13812 l -3.04713,1.63698 -1.51688,0.78445 c -0.83404,0.43149 -2.73401,0.91161 -4.22118,1.06655 l -2.70436,0.2812 -1.89186,-0.3283 c -0.94458,-0.40795 -0.97748,-0.50422 -1.52097,-0.66629 l -1.80881,-0.87484 -1.91957,-1.17154 c -0.73652,-0.92505 -3.17991,-1.56835 -3.36386,-1.91146 -0.36154,0.33314 1.72148,1.43924 3.17035,4.09795 -2.21428,7.01946 -2.89836,5.86716 -6.14628,8.25632 -5.22034,1.44935 -7.68284,2.85583 -12.07592,2.6486 -5.83959,-0.7717 -7.953086,-3.22465 -7.802651,-4.61125 0.28397,-2.31823 0.916599,-2.3104 0.416258,-4.46892 l -1.990073,-3.9363 c -3.916149,-3.30188 -1.402394,-0.19947 0.279121,3.41927 -0.565169,4.15447 -1.714899,7.98502 -7.117248,8.99858 l -1.900034,0.35669 -3.742997,-0.26457 c -2.743977,-0.7546 -4.712372,-1.61995 -4.711748,-1.41417 5.54e-4,0.2057 -0.353231,0.42041 1.075967,1.32323 l 2.599154,1.6419 -1.13484,1.21199 c -1.467153,1.56661 -2.26587,3.70248 -3.23005,8.63164 l -0.782094,3.99518 0.310981,7.74267 c 0.109432,2.20236 -0.295744,1.45102 -0.166226,2.5123 -1.119879,1.79039 -1.193227,2.20838 -3.148877,1.76498 -0.88834,-0.66906 -1.578525,-1.94797 -1.994921,-3.38887 l -0.25211,-2.0006 c -0.123284,-1.0493 0.02771,-0.32968 -0.293666,-2.4483 l -0.512531,-3.67139 0.0277,-6.48358 c 0.0015,-0.365 -0.372624,-1.57921 -1.840747,-1.93798 -1.735193,-0.25004 -2.655323,-0.072 -4.264808,-1.44243 -1.999285,-1.93751 -1.973312,-3.816 -2.354801,-5.69567 -0.08242,-1.01724 0.671831,-3.40244 1.352804,-5.63417 0.526383,-1.07506 1.132485,-2.02068 2.429048,-2.87952 1.075276,-0.71228 3.450716,-1.63642 3.664247,-2.12714 0.1406,-0.32345 -3.086542,0.26042 -3.086542,0.26042 0,0 -0.781609,0.20017 -1.011486,-0.18631 -0.664904,-1.1178 -0.684297,-2.67922 0.02078,-4.7443 1.953711,-2.41956 2.411179,-2.74495 3.791825,-4.51491 1.665448,-2.36553 2.403907,-2.17389 5.418695,-4.00446 l 3.242656,-0.89076 4.739591,-1.01827 c 2.68199,-0.68915 -0.607417,-1.636434 4.847154,-2.696333 l 4.236411,0.572095 2.77944,0.791721 3.759273,-2.996849 c 1.461889,-1.476712 3.560425,-2.052962 6.260565,-2.67818 4.72802,-0.108047 7.36486,0.405869 10.12802,0.899768 l 3.66272,0.606725 c 2.34393,0.545084 2.8005,1.883412 4.61215,3.547474 z m 21.05309,16.323547 h 6.3e-4 c 0.96425,0.0623 2.82245,1.18997 4.99627,1.91984 l 4.8964,0.94742 9.20872,-0.40587 9.20934,-0.40518 1.9251,0.91355 c 1.05914,0.50215 2.24946,1.43253 2.64535,2.06647 1.30758,2.09348 3.73691,16.44828 4.73115,27.95563 l 1.05013,15.27563 -0.007,-10e-4 c 0,0 -0.63027,20.47497 -0.71491,22.39447 l -0.37955,9.98853 -0.80841,4.48402 -0.80897,4.48464 -1.48592,3.03785 -1.48648,3.03723 -2.68857,1.30716 -2.68857,1.30723 -9.13218,0.0208 -9.13101,0.0208 -2.91699,1.85453 h -5.6e-4 c -1.60429,1.02014 -3.47759,1.85446 -4.16341,1.85446 h -1.24759 l -1.35329,-1.35336 c -2.58052,-2.58052 -3.34648,-9.01562 -1.7237,-14.4801 l 0.86563,-2.91519 1.74641,-1.46958 c 2.30223,-1.93688 3.26994,-1.85743 6.39811,0.53124 l 2.62021,2.00108 2.85036,0.65798 2.85036,0.65798 2.58572,-0.98711 2.58523,-0.9871 1.4292,-1.69856 c 0.7859,-0.93398 1.83992,-3.03577 2.34227,-4.66804 l 0.91285,-2.96887 0.32484,-7.30813 0.11982,-15.30894 h -0.003 c -3.5e-4,-0.0139 -0.17316,-6.16782 -0.2625,-11.34182 l -0.15445,-9.41726 -1.45961,-5.60252 c -0.80225,-3.08121 -1.98571,-6.45331 -2.629,-7.49444 l -1.16996,-1.89304 -1.61031,-0.66629 c -0.88523,-0.36639 -3.41775,-0.71844 -5.62828,-0.78091 l -4.01907,-0.11428 -2.87779,2.68801 -2.87842,2.68732 -1.56418,0.3934 -1.56474,0.39271 -0.90947,-0.55131 c -0.50006,-0.30337 -1.39249,-1.52063 -1.98121,-2.70429 l -1.07008,-2.1518 -0.072,-4.65697 -0.0727,-4.65751 1.42698,-2.85383 1.42691,-2.85382 1.19094,-0.16969 c 0.0817,-0.0139 0.19393,-0.0139 0.33107,-0.004 z m -5.27387,3.87487 -0.26111,1.39789 -0.30683,1.59722 -0.38439,4.779 0.2992,4.77845 1.34747,2.7178 1.34747,2.71655 1.85509,0.54577 1.85446,0.54578 v 10.44052 l 0.24795,10.5235 c 0.0817,0.0139 0.0416,2.48591 0.0416,2.48591 l -0.30821,5.13646 c -0.16969,2.82508 -0.0277,5.71008 -0.0416,5.66333 l -0.12398,3.70483 c 0,0 -0.26111,4.5841 -0.32345,9.47274 l -0.11428,8.8904 -1.73941,2.46721 -1.73887,2.46832 -0.62057,4.29951 -0.61989,4.29943 0.59426,3.05247 c 0.32622,1.67881 0.7868,3.5019 1.02277,4.05121 l 0.42942,0.99881 h -4.47467 -4.47356 l 2.04839,-1.39187 2.04902,-1.39249 1.03205,-2.17514 1.03213,-2.17458 0.2625,-4.08798 0.2625,-4.08744 -3.35327,-0.47859 -3.35382,-0.47721 -30.500483,0.13714 -30.501593,0.13714 -0.483441,0.48482 -0.485519,0.48552 9.868775,0.37401 c 5.427214,0.20571 14.644106,0.37539 20.479266,0.37678 5.834675,9.7e-4 14.840735,0.1683 20.011965,0.37262 l 9.40209,0.37055 0.93454,5.40401 c 1.25265,7.24247 1.80092,7.79483 2.39594,2.40876 0.18978,-1.72197 0.44119,-3.51783 0.55755,-3.98874 0.11705,-0.47097 0.36224,-1.53108 0.54509,-2.35681 l 0.33176,-1.50171 1.08407,-0.28397 1.08469,-0.28328 0.29367,1.80951 c 0.41279,2.54215 -0.40656,6.46523 -1.71435,8.21753 -0.6088,0.81541 -1.98661,2.00773 -3.06174,2.64943 l -1.95434,1.16643 H 94.666011 63.323245 l -0.207783,0.62473 -0.207783,0.62473 13.009965,0.39618 c 7.155203,0.21817 24.106736,0.365 37.666636,0.3276 13.55996,-0.0416 24.92214,0.0963 25.24718,0.29713 l 0.5908,0.36431 v 2.16288 2.16288 l 2.31068,1.0414 c 1.271,0.57279 3.05641,1.89145 3.96712,2.92863 l 1.65645,1.88542 0.38647,2.05954 0.38717,2.05948 -0.80315,0.80252 -0.8037,0.80315 -6.26139,0.96778 -6.26147,0.96848 -30.53373,-0.006 -30.534349,-0.006 -8.241491,-0.95144 c -4.532363,-0.52361 -8.480787,-1.19156 -8.773553,-1.48419 -0.804258,-0.80384 -1.011348,-3.84474 -0.376087,-5.51434 0.309596,-0.81444 1.652357,-2.48771 2.984105,-3.71834 l 2.421638,-2.23761 37.462173,0.0755 c 20.602344,0.0346 37.751614,-0.1032 38.105884,-0.32206 0.35392,-0.21956 0.4966,-0.6379 0.31514,-0.9299 l -0.3283,-0.53123 H 98.83988 61.177335 l 0.121206,-26.54036 c 0.0051,-6.73832 -0.09212,-13.66482 -0.205705,-20.1189 0,0 0.0069,-0.35877 0.0069,-0.35669 -0.0069,0.0208 -0.04848,-3.38824 -0.04848,-3.38824 l 0.124669,-5.13182 0.132289,-4.72179 0.150988,-2.51853 0.0029,-2.62492 0.0277,-5.71936 -0.05541,-13.90855 1.182907,-0.10459 c 1.850858,0.30891 1.785199,0.61088 1.848157,4.3241 -0.02078,1.02284 0.01385,2.03634 0.04848,3.12927 0.129017,4.68136 0.0015,6.01617 0.677454,8.33663 0.864015,2.98065 3.055926,5.59047 6.144557,4.60732 1.147733,-1.10717 1.857162,-1.51975 2.825355,-3.05885 l 0.725906,-3.03138 0.491059,-5.68251 0.0064,-1.57236 c -0.123977,-1.94118 -0.110818,-2.61509 0.457121,-5.70883 0.630274,-1.63165 0.842421,-2.11675 1.174042,-2.87315 0.448118,-1.02209 2.260467,-3.14486 3.119025,-3.51735 1.211719,-0.52569 3.469208,-1.88036 6.783827,-2.90771 l 4.062358,-1.77287 c 2.588418,1.41805 3.810734,1.93792 5.935381,2.6928 l 4.240639,0.54023 c 3.47136,-0.38717 4.62974,-0.52846 10.71584,-2.21005 5.74089,-2.74487 6.8303,-5.62509 6.8303,-5.62509 0,0 1.93383,-0.3463 3.23351,-0.48967 2.10165,-0.23203 3.16945,-0.27704 4.37133,-0.27704 1.29767,0 1.16421,0.19116 1.16421,0.19116 l -0.22164,2.31012 0.0277,2.15409 -0.38994,6.53594 c -0.2154,3.60406 -0.2057,7.59175 -0.31514,8.84662 -0.10943,1.25556 -0.25211,4.82132 -0.31721,7.92428 l -0.11705,5.64171 0.29713,3.77437 c 0.0623,1.57818 0.11843,3.05469 0.10666,4.85672 l -0.20363,4.17677 h 6.2e-4 l -0.35807,8.67604 c 0,0 -0.30129,3.46394 -0.38994,5.89167 l -0.16138,4.41455 -0.57002,0.21818 c -0.31375,0.12051 -11.55036,0.26734 -24.967997,0.32691 l -23.249008,0.49383 c -0.263192,0.51668 0.389938,1.18186 1.130753,0.96016 1.098547,0.1503 14.858052,0.4502 30.574112,0.66768 l 28.57649,0.39548 0.12397,-5.85193 c 0.13506,-6.40462 -0.14406,-8.02539 -1.38376,-8.02539 h -0.81714 v 5.74221 5.74152 l -2.14064,-0.17662 -2.1401,-0.1773 -0.1593,-6.94888 -0.1586,-11.52522 -0.14545,-25.29511 -0.005,-14.57173 -0.1039,-3.1673 c -0.002,-1.44007 -0.0139,-3.74265 -0.0139,-3.74265 l 2.321,-1.13664 z m 20.53551,13.13546 1.49119,0.68014 1.49118,0.67945 0.85219,2.03149 c 0.46889,1.11725 1.24378,3.82923 1.72127,6.0266 l 0.86798,3.99455 0.28258,8.56162 0.81479,7.23042 0.21124,5.69248 -0.16969,17.32582 -0.57833,3.8865 c -0.3179,2.13767 -1.06225,4.83441 -1.65408,5.99273 l -1.0759,2.10623 -1.95849,1.02914 -1.95842,1.02977 -2.42282,-0.30474 -2.42281,-0.30475 -2.92039,-2.00871 c -1.60623,-1.10491 -3.16356,-2.00925 -3.46013,-2.00925 h -0.53885 l 0.40864,-28.6799 0.40863,-28.67927 2.3352,-2.11612 2.33631,-2.11731 2.96949,-0.0277 z m -47.81869,58.33581 c -3.32126,-0.005 -6.7627,0.003 -10.149693,0.0208 -8.405155,-0.33453 -17.378526,0.77302 -25.610944,0.49591 -1.885558,-0.0139 -3.764121,-0.0693 -5.115609,-0.0139 l -2.853825,0.0873 2.568193,0.48552 2.568263,0.24242 28.394262,0.62958 28.393633,0.38786 v 2.1004 c 0,1.15493 0.16415,2.26373 0.3657,2.46424 0.20155,0.20085 0.9067,0.2625 1.5689,0.13713 0.66283,-0.12467 1.73111,-0.24587 2.37433,-0.26942 l 1.16933,-0.0416 -0.24102,-2.063 -0.24103,-2.06356 0.63443,-0.39132 c 0.34769,-0.21541 1.53607,-0.28605 2.63891,-0.15723 l 2.00454,0.2341 -0.006,0.9369 c -0.007,1.37351 -0.7005,2.23449 -2.29025,2.86899 l -1.41056,0.56309 1.17459,0.0416 c 0.64621,0.0208 1.64038,-0.30475 2.20901,-0.72018 l 1.03441,-0.75522 0.072,-2.24114 0.072,-2.23997 -7.41964,-0.43426 c -3.05987,-0.1787 -11.93919,-0.29644 -21.90327,-0.30891 z m -2.63773,32.86076 -19.120088,0.62127 c -18.675851,0.60672 -22.873406,1.01474 -24.183545,2.34919 l -0.642741,0.65521 1.711921,-0.4689 1.712545,-0.4682 18.548895,0.16345 c 10.201159,0.0907 26.922263,0.37886 37.154383,0.64067 l 18.60492,0.4772 1.65534,0.7938 1.65644,0.79373 v 0.84575 0.84581 l -2.19384,0.71838 -2.19377,0.71906 -19.20895,0.85039 c -10.56408,0.4682 -20.107887,0.89859 -21.206434,0.95794 l -1.997553,0.10736 4.565816,0.36154 c 2.511121,0.19878 12.273511,0.40933 21.691811,0.46613 l 17.12545,0.10458 1.9427,-0.55755 c 1.06842,-0.30613 2.54395,-1.12237 3.27846,-1.81242 l 1.33521,-1.25404 v -1.48592 c 0,-0.81721 -0.38232,-2.03163 -0.84927,-2.69854 l -0.84921,-1.21193 -2.7178,-0.95268 -2.71772,-0.95379 -16.5519,-0.30544 z"
       sodipodi:nodetypes="ccccscccccccccccccccccccccccccccccccccccccccccccccccccccccccccccccccccccccccccscccccccccccccccccccccccccccccccccccccccccccccccccccccccccccccccccccccccccccsccccsscscccccccccccccccccccccccccccccccccccscscccccccccccccccccccccccccccccccccccccccccccccccccsccccccccccccccccccccccccccccccccscccccscccccccccccccccccccccccscccccccccccccccccccccsccccccccscccccccscccccccccccccccccccccscccccccccccccccccccccccccccccccsccccccscccccccccsccccccccccscccccccscccccccccccccccccccccccccsccccccccc"
       sodipodi:insensitive="true" /><g
       id="g5504"
       transform="matrix(1.0675092,0,0,1.0675092,16.15293,33.106147)"><g
         id="g5502"
         transform="matrix(0.59611142,0,0,0.59611142,72.644678,17.90072)" /></g><g
       id="g5594"
       transform="matrix(0.64511559,0,0,0.64511559,99.495046,51.437769)" /></g></svg>
