<?xml version="1.0" encoding="UTF-8" standalone="no"?>
<!-- Created with Inkscape (http://www.inkscape.org/) -->

<svg
   width="148mm"
   height="210mm"
   viewBox="0 0 148 210"
   version="1.1"
   id="svg2615"
   inkscape:version="1.2.2 (732a01da63, 2022-12-09)"
   sodipodi:docname="sörgif - 7.svg"
   xmlns:inkscape="http://www.inkscape.org/namespaces/inkscape"
   xmlns:sodipodi="http://sodipodi.sourceforge.net/DTD/sodipodi-0.dtd"
   xmlns="http://www.w3.org/2000/svg"
   xmlns:svg="http://www.w3.org/2000/svg">
  <sodipodi:namedview
     id="namedview2617"
     pagecolor="#ffffff"
     bordercolor="#000000"
     borderopacity="0.25"
     inkscape:showpageshadow="2"
     inkscape:pageopacity="0.0"
     inkscape:pagecheckerboard="0"
     inkscape:deskcolor="#d1d1d1"
     inkscape:document-units="mm"
     showgrid="false"
     inkscape:zoom="0.73940797"
     inkscape:cx="396.26297"
     inkscape:cy="561.93606"
     inkscape:window-width="1920"
     inkscape:window-height="991"
     inkscape:window-x="-9"
     inkscape:window-y="-9"
     inkscape:window-maximized="1"
     inkscape:current-layer="layer1" />
  <defs
     id="defs2612" />
  <g
     inkscape:label="Réteg 1"
     inkscape:groupmode="layer"
     id="layer1">
    <g
       id="g8820"
       transform="matrix(1.2048058,0,0,1.2048058,123.88184,-71.847875)"
       style="display:inline">
      <rect
         style="font-variation-settings:normal;opacity:1;vector-effect:none;fill:#d6ab00;fill-opacity:1;fill-rule:evenodd;stroke:none;stroke-width:0.157106;stroke-linecap:butt;stroke-linejoin:miter;stroke-miterlimit:4;stroke-dasharray:none;stroke-dashoffset:0;stroke-opacity:1;-inkscape-stroke:none;stop-color:#000000;stop-opacity:1"
         id="rect8804"
         width="52.179623"
         height="37.744122"
         x="-78.625053"
         y="175.83061"
         rx="0.84466761"
         ry="1.5016316" />
      <g
         id="g5108"
         transform="matrix(0.74368179,0,0,0.74368179,44.515575,38.640303)">
        <g
           id="g5106"
           transform="translate(-164.51981,3.9949622)">
          <path
             id="path5090"
             style="fill:#000000;stroke-width:0.560574"
             d="m 115.62498,62.054219 -4.08347,1.240235 -4.08399,1.240234 -3.884,-0.65474 -3.883998,-0.655258 -1.916162,0.359668 -1.916162,0.359152 -2.487187,1.898592 -2.487186,1.898592 -2.659786,-0.800468 -2.659786,-0.800468 h -4.854484 -4.854484 l -2.922819,0.868164 -2.923336,0.868164 -2.50424,2.399337 -1.550724,1.64697 -0.952999,1.68926 c -0.253204,0.448823 -0.27726,0.936894 -0.615983,0.936894 -0.3388,0 -1.496911,0.417976 -2.57297,0.928626 l -1.95647,0.928108 -1.3255,2.014864 -1.326017,2.014348 -0.12454,2.522843 c -0.06869,1.387332 -1.66405,3.804097 -2.380303,5.737961 -0.716181,1.933844 -0.349247,4.576515 -0.349247,5.504247 0,2.244104 1.402838,5.502824 2.560051,5.946926 l 0.498804,0.35657 -1.231387,3.09432 -0.968603,5.15223 -0.375391,2.40455 1.702234,-1.20083 c 0,0 1.785993,-6.18589 1.845054,-6.79203 l 1.046929,-3.14063 1.009793,-2.474024 c 2.131015,-2.651716 1.438004,-3.087429 -0.75861,-0.476973 l -1.497583,1.779736 -0.496094,-0.798401 c -0.272742,-0.439302 -0.761499,-2.032631 -1.085722,-3.539835 l -0.589628,-2.740401 0.353467,-1.884123 c 0.319836,-1.704724 0.960392,-2.881635 0.960392,-1.487231 0,0.31594 1.053841,1.004599 1.865275,1.313081 l 1.475363,0.56069 1.150317,-0.364836 1.149801,-0.365352 -1.439189,-0.75396 c -0.791717,-0.414792 -1.966855,-1.647666 -2.610693,-2.73885 L 58.65613,84.446165 58.7514,82.751068 c 0.178107,-0.890432 0.757297,-2.437759 1.658376,-3.530941 l 1.333848,-1.531033 1.835547,-1.044411 2.672357,-0.359231 1.333989,-1.748808 1.333986,-2.586138 2.308436,-1.705949 2.68932,-1.554317 5.657725,-0.521667 5.885945,0.61892 3.211691,0.581001 3.211173,1.189592 0.348299,-0.563273 c 0.19149,-0.30981 1.369783,-1.303632 2.618445,-2.208134 L 97.1212,66.141818 h 2.421557 2.421563 l -1.38441,2.040186 c -0.761675,1.121974 -1.384935,2.417347 -1.384935,2.878377 v 0.838708 l 1.217505,-1.547709 c 0.66869,-0.851012 2.24617,-2.014846 3.50366,-2.585888 l 2.28616,-1.03818 2.70578,-0.01292 2.70578,-0.01292 1.63866,1.638659 c 1.80764,1.807542 2.0885,1.41859 0.78961,-1.092956 l -0.84852,-1.641244 1.449,-0.363802 c 2.33397,-0.585722 6.39898,0.225261 10.31617,2.058273 l 3.64629,1.706355 -2.2872,1.024227 c -1.25809,0.56326 -2.45051,1.44874 -2.64945,1.967322 l -0.36173,0.943095 1.2578,-0.402043 c 0.69178,-0.221012 2.46526,-0.721821 3.94136,-1.112593 l 2.68408,-0.710551 1.55287,0.445451 c 4.35545,1.248984 7.12732,3.763989 9.29504,8.433077 l 1.43144,3.083532 0.006,2.382284 0.006,2.382283 -1.2609,-0.01912 c -0.69372,-0.01094 -1.89208,-0.379992 -2.66289,-0.820622 -1.9869,-1.136134 -2.03471,-1.114821 -3.68453,1.700155 l -1.48931,2.541447 -1.48983,0.770496 c -0.81947,0.423692 -2.68525,0.895351 -4.146,1.047481 l -2.65617,0.276469 -1.85781,-0.640208 -0.22727,-1.349141 0.4143,-1.053973 1.26554,-0.203252 -0.55078,-0.567147 c -0.23828,-0.24536 -1.23395,-0.236445 -1.72163,-0.04936 l -0.67409,0.729944 -0.31902,1.07797 0.31902,1.07797 -1.72495,-1.275891 -1.05199,-1.098141 0.98581,-0.331456 0.56045,-0.402349 -0.52218,-0.233563 c -0.50179,-0.03072 -1.19994,-0.40195 -1.55133,-0.825272 l -0.63872,-0.769979 0.0663,-0.912089 0.88155,-0.592552 0.88948,-0.07089 1.03179,0.10634 -0.36486,-0.89707 -0.96796,-0.400299 -1.02032,0.0034 -1.02032,0.499694 -0.69502,1.144213 c -0.54895,1.729494 0.59799,4.073794 2.22671,5.633668 1.60543,1.537564 5.04485,3.191536 6.63732,3.191536 1.27455,0 1.36736,2.089279 1.36736,2.089279 l -0.21704,2.268595 0.0253,2.115646 -0.38292,6.41976 c -0.21104,3.53991 -0.20253,7.45639 -0.31058,8.68887 -0.1082,1.23325 -0.24851,4.73574 -0.31161,7.78351 l -0.11523,5.54126 0.29197,3.70727 c 0.0656,1.55015 0.11642,3.00032 0.10494,4.77025 l -0.2005,4.10208 h 5.1e-4 l -0.3514,8.52196 c 0,0 -0.2958,3.40207 -0.3824,5.78672 l -0.15762,4.33566 -0.56017,0.21549 c -0.30831,0.11835 -11.34476,0.26261 -24.52357,0.32091 l -23.307865,-0.41808 0.346743,-1.00638 0.21574,-1.61722 0.392679,-5.05641 -0.433238,-5.3396 c -1.631378,-3.10421 -0.800515,-11.27776 -0.982117,-13.10281 l -0.330213,-3.31866 -0.04134,-3.11351 0.173116,-2.74298 -0.110587,-5.75055 0.0078,-1.54461 c -0.121832,-1.90664 -0.109498,-2.56876 0.448551,-5.60741 0.619706,-1.6027 0.827383,-2.07913 1.152902,-2.82205 0.439875,-1.00392 2.14424,-3.45457 3.063379,-3.45457 0.932222,0 4.337376,1.71639 8.574153,4.32221 l 3.886585,2.39004 c 4.349841,1.18623 5.446873,1.33531 9.444392,1.81849 l 3.33933,-0.6568 c 4.12366,-0.81142 7.30938,-2.17287 10.41487,-4.45141 l 2.38228,-1.7477 c 1.09541,-1.87782 1.76874,-3.03836 2.1122,-3.94838 0.32808,-0.86925 0.33663,-1.49138 0.89853,-3.06572 l 0.33739,-1.570914 c -0.008,-0.669921 -0.84507,-5.876994 -1.43484,-7.110196 l -1.68568,-1.481685 0.91968,5.519185 0.24103,3.194934 -0.4664,2.144296 -0.88935,1.72083 -2.67943,1.95285 c -1.47363,1.07406 -4.06669,2.65774 -5.76244,3.51917 l -3.08353,1.56631 -4.63796,0.25528 -4.63848,0.2558 -2.648934,-1.03198 c -1.456925,-0.56771 -2.881299,-0.96427 -3.164664,-0.88057 -0.283348,0.0836 0.538417,-0.68162 0.916462,-1.13725 l -0.05657,-0.36756 -1.052648,0.27543 -1.052133,-0.0441 -0.707967,-0.53364 -0.530217,-0.85318 0.175717,-1.11259 0.494737,-0.82903 1.09328,-0.46392 1.23455,-0.18086 -0.91674,-0.37311 -0.916223,-0.3731 -1.469548,0.58231 -0.901884,1.07857 -0.01654,1.22938 -0.01705,1.22938 -0.606164,-1.04334 -0.606681,-1.04335 1.100191,-1.4795 1.100191,-1.47898 1.21853,-0.18086 1.219047,-0.18087 0.84646,-1.29192 c 0.465539,-0.710454 1.093564,-2.142961 1.395264,-3.182753 L 95.28617,95.57207 94.925468,93.125708 94.56425,90.679345 92.881148,88.76215 C 91.902515,87.647513 91.28444,87.104143 91.061625,87.128658 h -5.17e-4 c -0.222737,0.02452 -0.05046,0.617031 0.552421,1.773018 2.482694,4.76058 -1.230876,12.331324 -6.537068,13.326844 l -1.866553,0.35036 -4.900476,-1.34824 c -2.695185,-0.74118 -4.900515,-1.18295 -4.899959,-0.98082 5.48e-4,0.202 1.14959,1.09277 2.553332,1.97973 l 2.552816,1.61282 -1.114661,1.19011 c -1.440977,1.53869 -2.225908,3.6366 -3.172933,8.47803 l -0.767911,3.9238 0.305407,13.67461 0.698933,13.98029 0.814163,2.47324 c 0.423871,1.40841 0.487055,2.59631 0.762495,3.99772 0,0 -0.152175,1.40274 -0.167425,3.86925 l -0.376731,3.82946 -0.823984,1.74177 -1.30381,0.99941 h -1.882572 -1.882056 l -0.340548,-0.88677 c -0.187148,-0.48769 -0.369383,-3.32571 -0.405143,-6.30659 -0.03576,-2.98009 -0.119889,-8.43824 -0.119889,-8.43824 h -0.001 l -0.108004,-18.83399 c -0.120766,-1.03058 -0.02588,-3.95571 -0.346232,-6.03685 l -0.582393,-3.78374 h -0.65164 c -0.358539,0 -2.134406,-0.60456 -3.03623,-1.56014 l -0.540846,-1.48923 0.310609,-1.49093 0.665592,-1.06556 H 63.92323 c -0.288903,0 -0.910954,0.38594 -1.382345,0.85731 l -0.502328,0.82134 -0.01702,0.9155 0.337964,0.88057 -1.20251,-0.75138 c -1.367114,-0.85305 -0.983581,-1.48897 0.02992,-1.89796 l 0.09814,-0.38901 -0.878403,0.16828 c -0.522069,-0.0243 -1.330021,-0.5873 -1.795239,-1.2516 l -0.456031,-1.17275 0.164059,-1.07001 c 0.304427,-0.56898 0.922965,-1.03404 1.374593,-1.03404 0.451548,0 0.821138,-0.25238 0.821138,-0.56069 0,-0.85918 -1.496113,-0.66608 -2.482536,0.32039 -0.484419,0.4845 -0.900688,1.55643 -0.925008,2.38228 l -0.04444,1.50172 -0.28267,-0.70073 c -0.155509,-0.38539 -0.141849,-1.5389 -0.37151,-1.37419 0.03328,0.018 -1.574136,1.40236 -1.574136,1.40236 l 0.635131,2.78251 2.027783,1.91254 2.0283,1.91255 -0.206189,38.39765 -0.206189,38.39766 -2.148189,2.07946 c -1.18152,1.14362 -2.505909,2.76049 -2.942973,3.59306 l -0.794783,1.51361 v 4.52995 2.90732 c 0.01016,0.0262 0.02017,0.052 0.03049,0.0786 0.04887,0.10874 0.08135,0.22492 0.133325,0.33228 0.01889,0.039 0.06399,0.11632 0.08423,0.15192 0.0847,0.15238 0.164763,0.30701 0.248563,0.45992 0.04649,0.0976 0.0972,0.19322 0.146761,0.28939 v 5.2e-4 c 0.01349,0.0218 0.02674,0.0438 0.04031,0.0656 0.05273,0.0871 0.112613,0.16958 0.172083,0.25218 0.04457,0.0603 0.08987,0.1201 0.132291,0.1819 0.03811,0.0543 0.07255,0.11122 0.108521,0.16692 0.0409,0.0546 0.07242,0.11486 0.104903,0.17466 0.0068,0.0125 0.01348,0.0251 0.02015,0.0377 0.136696,0.12011 0.242662,0.26795 0.324011,0.42323 0.04272,0.0517 0.08308,0.1052 0.125574,0.15709 0.03797,0.0496 0.08081,0.0952 0.122473,0.1416 0.03567,0.0396 0.06678,0.0833 0.102319,0.12298 0.03749,0.0396 0.07249,0.0817 0.107487,0.12351 0.03472,0.0444 0.07453,0.0843 0.110588,0.12764 0.03662,0.0469 0.0746,0.0926 0.109037,0.14108 0.03155,0.0463 0.06718,0.0894 0.101802,0.13332 0.03769,0.0483 0.07507,0.0967 0.116272,0.14211 0.05069,0.0578 0.09935,0.11744 0.148312,0.17674 0.01674,0.0211 0.03292,0.0425 0.04909,0.0641 0.02563,0.0261 0.04911,0.0542 0.07493,0.0801 0.106461,0.0979 0.218692,0.18906 0.33383,0.27646 0.100635,0.0804 0.202897,0.1584 0.302307,0.2403 0.06885,0.0597 0.131485,0.12545 0.198438,0.18655 0.04926,0.0332 0.09541,0.0708 0.145727,0.10232 0.124198,0.0862 0.260256,0.15394 0.395842,0.22014 0.143291,0.0686 0.291525,0.1251 0.439766,0.1819 0.151413,0.0637 0.302604,0.12812 0.452686,0.19482 0.03677,0.0154 0.07165,0.0334 0.10542,0.0537 l 5.16e-4,5.1e-4 c 3.256022,0.75583 12.534821,1.68969 22.660116,2.27118 l 8.408789,0.48111 17.938432,-0.26665 c 9.86613,-0.14664 18.82098,-0.35998 19.90008,-0.47439 1.07911,-0.11439 4.35921,-0.3634 7.28741,-0.55345 2.92901,-0.19 7.61948,-0.74951 10.42314,-1.24334 l 0.27802,-0.0491 c 0.0782,-0.037 0.15671,-0.0733 0.23564,-0.10904 0.25293,-0.11179 0.4986,-0.2392 0.75138,-0.3514 0.2107,-0.10323 0.41725,-0.21233 0.61753,-0.33486 0.14482,-0.0788 0.28819,-0.16018 0.42892,-0.24598 0.11389,-0.0702 0.23108,-0.13711 0.34674,-0.20361 0.006,-0.003 0.0111,-0.006 0.0165,-0.009 0.066,-0.0553 0.12972,-0.11267 0.19534,-0.16847 0.15275,-0.13278 0.2962,-0.27705 0.45578,-0.40204 0.16118,-0.14361 0.32816,-0.27921 0.49403,-0.41703 0.0708,-0.0587 0.14238,-0.11692 0.21549,-0.1726 l 0.81029,-0.90847 c 0.53569,-0.60055 1.24985,-1.88339 1.58698,-2.85047 l 0.61288,-1.75752 -0.663,-3.19412 -0.66301,-3.19412 -2.71922,-2.71973 c -1.49547,-1.49547 -3.10918,-2.71921 -3.58634,-2.71921 h -0.86765 l 0.0238,-0.98082 0.0233,-0.98082 3.76049,-1.87792 3.75998,-1.87741 6.2575,0.62684 6.25698,0.62735 3.08095,-0.36225 3.08095,-0.36225 2.15387,-1.20251 2.15336,-1.202 1.7756,-2.6448 1.7756,-2.64428 0.85111,-3.78995 c 0.46813,-2.08397 1.12712,-6.30448 1.464,-9.37669 l 0.61236,-5.58622 -0.017,-20.01842 -0.0171,-20.0179 -0.87592,-6.90862 c -0.48175,-3.79968 -1.51321,-9.81005 -2.29237,-13.35526 l -1.41645,-6.446635 -1.03094,-1.682068 c -0.56701,-0.924862 -1.8685,-2.185792 -2.89182,-2.802413 l -1.86035,-1.121379 -7.00732,0.22531 c -3.85395,0.123762 -9.15197,0.243233 -11.77189,0.266133 l -5.41806,-0.237982 -0.59553,-0.419857 -1.2485,-0.699699 1.10846,-1.108976 1.10846,-1.107426 v -1.580782 c 0,-2.718218 -1.58137,-7.057939 -3.84731,-10.56473 l -2.18023,-3.373437 -1.89136,-1.152901 c -1.04029,-0.634062 -3.113,-1.561632 -4.60592,-2.061373 -1.49295,-0.499701 -3.51089,-1.506011 -4.48448,-2.235523 -2.95022,-2.210623 -6.19111,-3.605397 -10.01438,-4.309814 z m 24.02438,29.42301 h 5.1e-4 c 0.94703,0.06357 2.77212,1.168754 4.90718,1.885702 l 4.80954,0.930147 9.04493,-0.398425 9.04493,-0.398425 1.89135,0.897103 c 1.04026,0.493562 2.20942,1.40718 2.59829,2.02985 1.28424,2.056214 3.67026,16.155209 4.64675,27.457759 l 1.03146,15.00374 -0.015,-0.002 c 0,0 -0.61933,20.1107 -0.70228,21.99607 l -0.3731,9.81026 -0.79427,4.40438 -0.79478,4.4049 -1.45935,2.9838 -1.45985,2.98328 -2.64067,1.28364 -2.64067,1.28416 -8.96947,0.0171 -8.96897,0.017 -2.86494,1.8216 h -5.1e-4 c -1.57568,1.00203 -3.41554,1.82159 -4.08916,1.82159 h -1.22525 l -1.32963,-1.32963 c -2.53457,-2.53457 -3.28683,-8.85519 -1.69292,-14.22239 l 0.85007,-2.86287 1.71515,-1.44333 c 2.26109,-1.90245 3.212,-1.8245 6.28437,0.52142 l 2.57348,1.96525 2.79983,0.64596 2.79931,0.64647 2.5399,-0.96997 2.53938,-0.96945 1.40353,-1.66811 c 0.77198,-0.91742 1.80723,-2.98148 2.30064,-4.58473 l 0.8971,-2.9161 0.31936,-7.17786 0.11834,-15.03681 h -0.003 c -3.7e-4,-0.0128 -0.17081,-6.05804 -0.25787,-11.13989 l -0.15193,-9.24956 -1.4335,-5.50251 c -0.78839,-3.02634 -1.9503,-6.33876 -2.58227,-7.36131 l -1.14928,-1.85932 -1.5813,-0.65474 c -0.86962,-0.36023 -3.35725,-0.70547 -5.52835,-0.76687 l -3.94756,-0.11214 -2.8267,2.64015 -2.8267,2.63963 -1.53634,0.38602 -1.53686,0.38551 -0.894,-0.54157 c -0.49184,-0.29789 -1.36744,-1.49303 -1.94562,-2.65565 l -1.0511,-2.11357 -0.0703,-4.5744 -0.0698,-4.574399 1.40146,-2.80293 1.40147,-2.802929 1.16944,-0.166915 c 0.0804,-0.01149 0.19027,-0.01424 0.32556,-0.0036 z m -4.78834,1.177706 c 0.31086,-0.03597 0.068,0.617319 -0.70435,2.882512 l -0.91571,2.687691 0.29301,4.693772 0.29249,4.69326 1.32395,2.66908 1.32343,2.66858 1.82211,0.5364 1.8216,0.5364 v 10.25467 l 0.24443,10.33632 c 0.0815,0.0142 0.0362,2.44119 0.0362,2.44119 l -0.30283,5.04517 c -0.16649,2.77483 -0.0238,5.60837 -0.047,5.56246 l -0.12144,3.63905 c 0,0 -0.25609,4.50273 -0.31729,9.30434 l -0.11162,8.73177 -1.70843,2.42362 -1.70842,2.42414 -0.60823,4.223 -0.60875,4.223 0.58343,2.99827 c 0.32094,1.64893 0.77304,3.43953 1.00459,3.97908 l 0.42116,0.98082 h -4.39456 -4.39405 l 2.01176,-1.36736 2.01228,-1.36736 1.01389,-2.1363 1.0139,-2.1363 0.25786,-4.01475 0.25787,-4.01525 -3.29386,-0.46974 -3.29386,-0.46922 -29.957857,0.13539 -29.958378,0.13539 -0.47594,0.47594 -0.476457,0.47646 9.692949,0.36742 c 5.330729,0.20221 14.383322,0.36848 20.114534,0.36948 5.730929,9.5e-4 14.576989,0.16565 19.656169,0.36587 l 9.23457,0.36432 0.91778,5.30769 c 1.23029,7.11357 1.76896,7.65594 2.35334,2.36574 0.18691,-1.69122 0.43367,-3.45512 0.54829,-3.91759 0.1147,-0.46247 0.3554,-1.50406 0.53485,-2.3151 l 0.3266,-1.47485 1.06505,-0.27853 1.06505,-0.27854 0.28835,1.77767 c 0.40521,2.49694 -0.39865,6.35027 -1.68362,8.07134 -0.59723,0.80095 -1.95109,1.9717 -3.00705,2.60191 l -1.91978,1.14567 H 95.597782 64.813098 l -0.204639,0.61391 -0.204638,0.61392 12.778548,0.38912 c 7.027838,0.21407 23.677681,0.35905 36.996191,0.32195 13.31852,-0.0371 24.47816,0.0942 24.79745,0.29145 l 0.58033,0.35864 v 2.1239 2.12442 l 2.26963,1.02319 c 1.24845,0.56298 3.00186,1.85747 3.8964,2.87631 l 1.62678,1.85208 0.3793,2.02262 0.37931,2.02261 -0.78859,0.78859 -0.78858,0.78858 -6.15001,0.95085 -6.15001,0.95084 -29.99042,-0.006 -29.990935,-0.006 -8.094597,-0.93483 c -4.451591,-0.51427 -8.329553,-1.17031 -8.617045,-1.45779 -0.789435,-0.78952 -0.993412,-3.7763 -0.370003,-5.41621 0.304141,-0.79993 1.623119,-2.44321 2.931087,-3.65197 l 2.378666,-2.1978 36.794654,0.0744 c 20.235613,0.041 40.521513,0.48266 40.869473,0.26761 l -0.13533,-1.83454 -40.310397,-0.18438 H 62.703666 l 0.119373,-26.06766 c 0.0055,-6.6184 -0.09167,-13.42187 -0.202055,-19.76107 0,0 0.01103,-0.35292 0.01137,-0.35036 -0.01369,0.022 -0.04961,-3.32745 -0.04961,-3.32745 l 0.12299,-5.04052 0.130225,-4.63796 0.148311,-2.47375 0.0031,-2.57814 0.03307,-5.61723 0.08268,-6.51071 1.476396,0.4377 c 0.693634,0.21323 1.348836,0.46484 1.455725,0.55914 0.106889,0.0943 0.372427,9.53211 0.636137,12.82764 l -0.221692,13.80691 h -0.001 c 0,0 -0.372355,5.23666 -0.380855,10.55543 l -0.0083,5.02088 0.677994,1.0852 c 0.372766,0.59688 1.332506,1.49171 2.132687,1.98851 l 1.455208,0.90331 -2.80293,0.0853 -2.802929,0.0853 2.522326,0.47646 2.522844,0.47594 27.888737,0.38085 27.888222,0.38086 v 2.06292 c 0,1.1344 0.1616,2.22348 0.35864,2.42052 h -10e-4 c 0.19706,0.19728 0.89071,0.25776 1.54151,0.13488 0.65081,-0.1227 1.70036,-0.24168 2.33216,-0.26458 l 1.14876,-0.0419 -0.23667,-2.02623 -0.23668,-2.02675 0.62218,-0.38448 c 0.34207,-0.21145 1.50834,-0.281 2.59158,-0.15451 l 1.96938,0.22996 -0.008,0.91984 c -0.0126,1.34911 -0.68768,2.19515 -2.24947,2.81843 l -1.38545,0.55294 1.15394,0.0357 c 0.63479,0.0196 1.61137,-0.29905 2.16989,-0.70745 l 1.01544,-0.74208 0.0729,-2.20089 0.0723,-2.20039 -7.28741,-0.42633 c -4.00734,-0.23449 -18.1765,-0.36038 -31.483866,-0.28008 l -24.196973,0.14572 1.774052,-1.54874 1.773535,-1.54926 1.962154,0.26769 c 1.079024,0.14715 14.593407,0.44216 30.029698,0.65577 l 28.06805,0.38861 0.12144,-5.74746 c 0.13305,-6.29061 -0.1413,-7.88272 -1.35909,-7.88272 h -0.80305 v 5.63997 5.63945 l -2.1022,-0.17415 -2.1022,-0.17364 -0.15709,-6.8249 -0.15658,-11.32024 -0.14315,-24.84448 -0.34003,-23.483327 1.51981,-0.538469 c 0.836,-0.296222 1.96159,-0.793096 2.50114,-1.103808 0.3722,-0.214388 0.62816,-0.373292 0.76946,-0.389641 z m 19.77812,15.529805 1.46503,0.66766 1.46451,0.66714 0.83767,1.99575 c 0.46063,1.09739 1.22132,3.7608 1.69034,5.91902 l 0.85266,3.92379 0.27802,8.40879 0.79995,7.10189 0.20722,5.59139 0.16898,-0.01 -0.16846,0.0103 -0.16692,17.01704 -0.5674,3.81734 c -0.31213,2.09962 -1.04336,4.74824 -1.62471,5.88595 l -1.05678,2.06861 -1.92392,1.0113 -1.92339,1.01131 -2.3797,-0.29972 -2.3797,-0.29921 -2.86856,-1.973 c -1.57759,-1.08521 -3.10698,-1.97353 -3.39824,-1.97353 h -0.52917 l 0.40049,-28.16882 0.40049,-28.16882 2.29392,-2.07895 2.29443,-2.07946 2.91662,-0.0227 z m -49.55822,89.57283 -18.779211,0.6103 c -18.34341,0.59646 -22.466232,0.99674 -23.753072,2.30735 l -0.632003,0.64389 1.681551,-0.45992 1.682068,-0.46044 18.218526,0.16123 c 10.0195,0.0884 26.442851,0.37159 36.492861,0.62942 l 18.27382,0.46871 1.62626,0.77928 1.62677,0.77979 v 0.83096 0.83044 l -2.1549,0.7059 -2.15439,0.7059 -18.86707,0.83509 c -10.37615,0.45921 -19.750177,0.88273 -20.829219,0.94103 l -1.961637,0.10594 4.484476,0.35501 c 2.46653,0.19523 12.05495,0.40126 21.30568,0.45786 l 16.82068,0.10283 1.90789,-0.54725 c 1.04935,-0.30094 2.49854,-1.102 3.21996,-1.77974 l 1.31155,-1.23196 v -1.45934 c 0,-0.80261 -0.37527,-1.99549 -0.83406,-2.65049 l -0.83457,-1.19062 -2.66909,-0.93586 -2.6696,-0.93638 -16.25689,-0.29972 z"
             sodipodi:nodetypes="cccccccccccccccccssccccccssccccccccscccccsccccccccccccccccccccccccccsccscccccccccccccscccccccccccccccccsccccccccccccccccccccsscccccccccccccccccccccsccccccssccccccscccccccccccccccccccccccccccccccccccccccccccccccccsccccccccscccccccscccccsccccssccccccccccsscccccccccccccccccsccccccccsccccccccccccccccccccccccsscccccccccccccscccccsccccccccccccccccccsccccccccccccsccccscccccccccccccccccccccccccscsccccccccccccccccccccccccccccsccccccccccccccccccccccccccccccccccccccccccccccccccccccccccccccccccsccccccccccccccccccccccccccccccccccccsccccccccccccccsccccccccsccscccccccccccccccscccccccccccccccccccccccccccccccccscccccccccccccccccccccccccccccccscccccc"
             transform="matrix(1.2967033,0,0,1.2967033,-102.62136,-23.311742)" />
          <path
             id="path5092"
             style="fill:#000000;fill-rule:evenodd;stroke-width:0.508626"
             d="m 115.34155,144.72419 a 15.583614,7.7138051 0 0 1 -15.01305,5.65826 15.583614,7.7138051 0 0 1 -14.887364,-5.44408 16.145187,8.5509626 0 0 0 -1.117282,3.11194 16.145187,8.5509626 0 0 0 16.145106,8.55099 16.145187,8.5509626 0 0 0 16.14511,-8.55099 16.145187,8.5509626 0 0 0 -1.27252,-3.32612 z"
             transform="matrix(1.2967033,0,0,1.2967033,-102.62136,-23.311742)" />
          <ellipse
             style="fill:#000000;fill-rule:evenodd;stroke-width:0.964999"
             id="ellipse5094"
             cx="44.497353"
             cy="140.7444"
             rx="14.504662"
             ry="17.331841"
             transform="translate(-32.834729,1.2751371)" />
          <ellipse
             style="fill:#ffffff;fill-rule:evenodd;stroke-width:1.17037"
             id="ellipse5096"
             cx="44.251514"
             cy="140.74437"
             rx="10.079511"
             ry="12.66085"
             transform="translate(-32.834729,1.2751371)" />
          <ellipse
             style="fill:#000000;fill-rule:evenodd;stroke-width:1.16257"
             id="ellipse5098"
             cx="44.251514"
             cy="142.53558"
             rx="8.1127768"
             ry="9.3419857"
             transform="translate(-32.834729,1.2751371)" />
          <ellipse
             style="fill:#000000;fill-rule:evenodd;stroke-width:0.964999"
             id="ellipse5100"
             cx="28.360758"
             cy="144.86086"
             rx="14.504662"
             ry="17.331841"
             transform="rotate(-6.4675063)" />
          <ellipse
             style="fill:#ffffff;fill-rule:evenodd;stroke-width:1.17037"
             id="ellipse5102"
             cx="34.336037"
             cy="143.48593"
             rx="10.079511"
             ry="12.66085"
             transform="rotate(-3.9959482)" />
          <ellipse
             style="fill:#000000;fill-rule:evenodd;stroke-width:1.16257"
             id="ellipse5104"
             cx="44.462452"
             cy="142.20638"
             rx="8.1127768"
             ry="9.3419857" />
        </g>
      </g>
      <path
         style="fill:#d6ab00;fill-opacity:1;fill-rule:evenodd;stroke-width:5.11124"
         d="m -353.11003,795.39975 c 0.0525,-4.15186 -0.0342,-38.77198 -0.19268,-76.93361 -0.15846,-38.16164 0.0866,-97.20245 0.54452,-131.20181 l 0.83264,-61.81702 4.05308,1.23936 c 2.2292,0.68165 4.3317,1.52787 4.67222,1.88049 1.71121,1.77202 2.34863,42.76512 1.48016,95.19129 -1.07829,65.09107 -1.43081,62.22312 8.5103,69.23497 l 4.9393,3.48387 -9.784,-0.12817 c -8.30544,-0.10881 -9.36502,0.13748 -7.01147,1.62963 2.10265,1.33307 28.88306,2.31005 110.83762,4.04345 l 108.06508,2.28564 0.50125,7.66703 c 0.27569,4.21686 0.83699,8.01467 1.24732,8.43958 0.41033,0.42491 4.95884,0.41514 10.10779,-0.0217 l 9.36174,-0.7943 -0.27404,-7.86426 -0.27405,-7.86424 8.064147,-0.27958 c 7.787832,-0.27001 8.062041,-0.15904 8.002733,3.23871 -0.06903,3.95456 -4.787907,8.85381 -9.607087,9.97432 -5.486093,1.27558 -3.708093,3.62974 2.027663,2.68472 9.854252,-1.62355 11.627604,-3.68432 11.8027,-13.71558 l 0.155286,-8.89633 -23.452452,-1.40563 c -22.33318,-1.33854 -173.77327,-1.8234 -194.46271,-0.62259 l -9.82123,0.57002 5.04776,-4.88698 5.04777,-4.88697 110.2856,1.97494 110.285597,1.97494 0.340403,-19.98344 c 0.411082,-24.05597 -0.84159,-30.5162 -5.933915,-30.60508 l -3.54047,-0.0618 0.099,20.32707 0.09899,20.32707 -5.783449,-0.10236 c -3.180876,-0.0566 -6.409806,-0.90226 -7.175406,-1.87923 -0.84194,-1.07442 -1.58669,-26.9791 -1.88478,-65.55823 -0.27105,-35.08006 -0.7706,-82.60299 -1.11011,-105.60652 -0.33949,-23.00411 -0.51031,-47.95323 -0.37957,-55.44308 l 0.2377,-13.6179 7.308324,-2.93844 c 4.019593,-1.61615 7.442441,-2.78535 7.606345,-2.59823 0.163904,0.18712 -1.028856,4.38448 -2.650588,9.32746 -2.709181,8.25749 -2.848154,10.39195 -1.71166,26.28715 1.090957,15.25835 1.788675,18.44484 5.912279,27.00179 4.505218,9.34885 4.924038,9.76614 11.510605,11.46833 l 6.835267,1.76646 0.151651,49.71368 c 0.08341,27.34253 -0.710302,72.85745 -1.764079,101.14429 l -1.915462,51.43061 -5.731297,8.15162 c -5.329874,7.58066 -5.891701,9.28888 -8.021169,24.38819 -2.249279,15.94889 -2.233192,16.47347 0.907499,29.60768 1.758553,7.35412 3.03133,13.55064 2.828415,13.77004 -0.202914,0.21941 -6.236681,0.11409 -13.408368,-0.23404 l -13.039152,-0.63296 5.32306,-3.41112 c 3.33564,-2.13754 6.88062,-6.32706 9.494802,-11.22112 3.756097,-7.03192 4.241207,-9.39736 4.86911,-23.74241 l 0.697393,-15.93238 -6.988916,-1.09657 c -10.790829,-1.69306 -46.198459,-2.07219 -144.637249,-1.54868 -68.30941,0.36328 -91.00896,0.9058 -92.64263,2.21415 -1.83993,1.47355 -1.34786,1.89272 3.28713,2.8001 2.99804,0.5869 50.53329,1.90002 105.63389,2.91804 55.1006,1.01799 100.87612,2.32642 101.72339,2.90757 0.84727,0.58115 2.48304,6.74962 3.63503,13.7077 1.152,6.95808 2.94337,16.08608 3.98083,20.28442 1.72534,6.98208 1.67982,7.77969 -0.53346,9.34845 -3.65914,2.5936 -16.29279,2.85757 -126.4753,2.64264 -99.01091,-0.19314 -103.60138,-0.0229 -103.76818,3.84907 -0.12789,2.96857 58.28541,4.35128 181.08207,4.28641 47.61371,-0.0251 88.130805,0.375 90.038001,0.88921 2.657939,0.71664 3.451674,1.84867 3.399319,4.84809 l -0.0683,3.91312 -126.4865,-0.51101 c -69.56758,-0.28107 -132.3257,-0.2253 -139.46249,0.12393 l -12.97599,0.63494 z"
         id="path8798"
         transform="scale(0.26458333)" />
      <path
         style="fill:#d6ab00;fill-opacity:1;fill-rule:evenodd;stroke-width:5.11124"
         d="m -112.49494,775.22988 c 0.4088,-2.30553 1.17094,-7.33802 1.69364,-11.18333 2.64702,-19.47316 4.35609,-25.61889 7.32494,-26.34015 3.924578,-0.95345 5.031026,1.34066 4.902466,10.16479 -0.169666,11.6456 -2.829926,19.1879 -9.065246,25.70154 l -5.59908,5.84901 z"
         id="path8800"
         transform="scale(0.26458333)" />
      <path
         style="fill:#d6ab00;fill-opacity:1;fill-rule:evenodd;stroke-width:5.11124"
         d="m -298.43487,674.66383 c 2.20694,-6.55446 1.88765,-38.2936 -0.47026,-46.74757 -1.5482,-5.55083 -2.47983,-16.49883 -2.92649,-34.39056 -0.36039,-14.43606 -0.41453,-26.506 -0.12031,-26.82207 0.29423,-0.31606 0.51436,0.63387 0.48918,2.11095 -0.0915,5.36766 7.71462,19.7071 13.96223,25.64799 8.28593,7.87912 14.55522,10.47408 25.77811,10.66998 15.90952,0.2777 27.90132,-7.85131 36.28322,-24.59568 4.12915,-8.24873 4.54222,-10.24606 4.7656,-23.0434 0.22274,-12.76087 -0.12782,-14.83173 -3.9266,-23.19513 -5.40097,-11.89079 -9.62194,-16.92578 -18.32882,-21.86354 -22.67284,-12.85803 -49.59481,-0.01 -57.51494,27.44871 -1.81633,6.29704 -1.83904,6.20455 -1.87675,-7.64259 -0.0725,-26.61568 1.3316,-33.19189 9.61511,-45.03413 6.01747,-8.60267 6.38523,-8.51808 35.27373,8.11357 9.92181,5.71217 21.17987,11.15426 25.01791,12.09353 17.32188,4.23913 28.84566,4.62444 40.35711,1.34939 1.43815,-0.40916 -0.14402,1.87744 -3.62902,5.24478 -3.39836,3.28361 -7.7943,9.09564 -9.76876,12.91561 -3.19042,6.17249 -3.62143,8.73854 -3.87308,23.05898 -0.2545,14.48415 0.0763,16.91641 3.27174,24.05271 6.69623,14.95462 19.32889,25.35644 33.83727,27.86184 7.39507,1.27701 19.37509,-1.91435 26.15588,-6.9677 21.84504,-16.2799 24.67558,-54.1051 5.68592,-75.98237 -7.13289,-8.21753 -13.66024,-12.15571 -24.22303,-14.6146 l -7.28894,-1.69678 4.15438,-2.04792 c 2.28492,-1.12635 8.05515,-4.78845 12.82276,-8.13799 9.46705,-6.65119 14.39852,-14.57256 18.46241,-29.65604 1.81437,-6.73418 1.85877,-9.28637 0.31693,-18.21541 -0.98618,-5.71118 -1.78746,-10.74725 -1.78062,-11.19126 0.007,-0.44402 4.21328,0.68852 9.34765,2.51675 10.05448,3.58017 12.49478,6.64378 10.6125,13.32315 -0.54554,1.93581 -2.03172,53.01343 -3.30264,113.50581 -1.27092,60.49239 -2.76179,111.03329 -3.31306,112.31311 -0.55126,1.27983 -2.06436,2.73169 -3.36245,3.22636 -1.29807,0.49468 -40.42849,0.58609 -86.95649,0.20314 l -84.59634,-0.69629 z m 99.77121,-13.04813 c 13.86437,-2.20657 30.50053,-9.9983 36.32392,-17.01271 5.44406,-6.5575 6.66043,-13.6967 3.56133,-20.90229 -1.32479,-3.08022 -2.64748,-5.60458 -2.93932,-5.60967 -0.29183,-0.005 -2.48413,2.13889 -4.8718,4.76441 -11.70602,12.8722 -42.47885,19.36293 -68.38784,14.42466 -15.09485,-2.87709 -25.92643,-7.54481 -31.92684,-13.75841 -4.96793,-5.14445 -6.97523,-4.14543 -8.48343,4.22213 -4.20342,23.32079 34.80721,40.54308 76.72398,33.87188 z"
         id="path8802"
         transform="scale(0.26458333)" />
    </g>
  </g>
</svg>
